{"glyphs":{"0":{"ha":788,"x_min":74,"x_max":714,"o":"m 74 478 q 149 810 74 678 q 394 961 235 961 q 639 810 553 961 q 714 478 714 678 q 639 146 714 278 q 394 -6 553 -6 q 149 146 235 -6 q 74 478 74 278 m 169 478 q 288 122 169 219 q 394 88 331 88 q 569 214 510 88 q 618 478 618 318 q 500 833 618 735 q 394 868 458 868 q 218 742 278 868 q 169 478 169 639 z "},"1":{"ha":454,"x_min":47,"x_max":428,"o":"m 57 68 l 203 94 l 203 835 l 60 807 l 47 886 l 267 961 l 297 947 l 297 94 l 428 76 l 428 0 l 67 0 l 57 68 z "},"2":{"ha":700,"x_min":47,"x_max":635,"o":"m 67 0 l 53 81 q 130 158 83 115 q 227 251 176 201 q 328 356 278 300 q 419 469 379 411 q 511 713 511 601 q 449 840 511 797 q 344 872 401 872 q 215 846 263 872 l 214 843 q 206 831 213 842 q 149 724 196 810 l 47 786 q 172 917 100 874 q 325 961 243 961 q 457 941 407 961 q 540 886 507 921 q 608 706 608 817 q 524 472 608 607 q 347 251 465 379 q 199 104 288 188 l 182 88 l 519 88 l 567 238 l 635 238 l 607 0 l 67 0 z "},"3":{"ha":715,"x_min":50,"x_max":644,"o":"m 99 156 q 326 82 197 82 q 475 128 414 82 q 540 261 540 176 q 432 414 540 371 q 225 443 357 443 l 204 443 l 204 531 q 398 553 340 531 q 486 615 456 576 q 517 719 517 653 q 461 831 517 788 q 336 872 407 872 q 218 843 260 872 l 154 724 l 51 786 q 172 917 100 874 q 347 961 243 961 q 531 899 451 961 q 618 722 618 831 q 574 579 618 644 q 456 490 531 515 q 586 419 533 475 q 644 274 644 356 q 617 140 644 192 q 544 56 589 89 q 322 -6 458 -6 q 50 76 171 -6 l 99 156 z "},"4":{"ha":706,"x_min":11,"x_max":649,"o":"m 531 101 q 642 82 617 82 l 642 3 l 225 3 l 225 78 l 436 100 l 436 278 l 54 278 l 11 367 l 436 960 l 531 960 l 531 372 l 649 372 l 649 278 l 531 278 l 531 101 m 436 372 l 436 822 l 118 372 l 436 372 z "},"5":{"ha":697,"x_min":40,"x_max":633,"o":"m 239 542 q 111 531 185 542 l 111 913 l 154 958 l 614 958 l 614 865 l 199 865 l 199 626 q 242 629 221 629 l 282 629 q 536 546 442 629 q 633 321 633 460 q 538 83 633 175 q 297 -6 443 -6 q 40 76 143 -6 l 90 156 q 187 101 131 119 q 296 82 243 82 q 392 99 349 82 q 467 147 435 117 q 533 314 533 215 q 440 497 533 442 q 239 542 367 542 z "},"6":{"ha":782,"x_min":71,"x_max":715,"o":"m 172 467 q 277 561 213 525 q 413 597 342 597 q 539 576 485 597 q 633 515 593 554 q 715 304 715 435 q 633 83 715 171 q 414 -6 549 -6 q 254 39 319 -6 q 149 150 189 83 q 71 457 71 281 q 153 789 71 643 q 317 939 213 894 q 433 961 369 961 q 544 947 496 961 q 625 914 592 932 q 710 850 683 881 l 608 751 l 536 851 q 428 874 492 874 q 313 832 364 874 q 231 728 263 790 q 172 467 172 611 m 418 82 q 505 102 467 82 q 567 153 543 122 q 615 304 615 215 q 561 451 615 393 q 411 510 507 510 q 258 446 325 510 q 194 293 194 383 q 265 144 208 204 q 418 82 325 82 z "},"7":{"ha":593,"x_min":42,"x_max":579,"o":"m 142 868 l 100 713 l 42 713 l 42 958 l 554 958 l 579 924 l 272 0 l 175 0 l 168 19 l 479 868 l 142 868 z "},"8":{"ha":713,"x_min":65,"x_max":647,"o":"m 176 899 q 209 930 176 899 q 354 961 242 961 q 532 903 467 961 q 597 740 597 846 q 557 624 597 675 q 446 518 517 574 q 638 317 608 421 q 647 238 647 281 q 629 151 647 194 q 575 72 611 108 q 353 -6 493 -6 q 133 72 213 -6 q 65 239 65 142 q 192 464 65 368 q 261 513 226 490 q 155 609 199 556 q 111 749 111 663 q 176 899 111 836 m 219 374 q 206 360 219 374 q 176 315 193 347 q 160 242 160 282 q 176 172 160 201 q 218 122 192 143 q 353 82 272 82 q 492 122 436 82 q 551 240 551 168 q 414 419 551 343 q 338 465 344 458 q 277 422 308 444 q 219 374 246 400 m 459 647 q 470 660 459 647 q 492 698 481 674 q 503 753 503 722 q 489 807 503 783 q 453 844 475 831 q 353 874 410 874 q 271 853 304 874 q 222 810 238 833 q 206 753 206 788 q 217 694 206 719 q 249 646 228 668 q 368 563 275 618 q 459 647 438 621 z "},"9":{"ha":743,"x_min":64,"x_max":667,"o":"m 565 457 q 470 383 528 408 q 348 357 413 357 q 231 382 283 357 q 144 449 179 407 q 71 657 71 535 q 136 858 71 775 q 356 960 215 960 q 664 564 639 960 q 667 428 667 507 q 642 263 667 349 q 574 118 618 178 q 333 -6 482 -6 q 64 89 175 -6 l 124 172 q 267 90 181 115 q 331 82 294 82 q 409 99 367 82 q 486 160 451 117 q 565 457 560 254 m 439 853 q 363 872 404 872 q 287 858 321 872 q 228 817 253 843 q 172 664 172 758 q 219 511 172 574 q 360 446 268 446 q 483 493 426 446 q 557 617 543 542 q 439 853 535 800 z "}," ":{"ha":333,"x_min":0,"x_max":0,"o":""},"!":{"ha":351,"x_min":100,"x_max":250,"o":"m 132 317 l 107 943 l 221 960 l 250 907 l 213 317 l 132 317 m 172 -4 q 157 -4 172 -4 q 121 17 142 -4 q 100 67 100 38 q 121 119 100 97 q 172 140 142 140 q 223 119 201 140 q 244 67 244 97 q 223 17 244 38 q 172 -4 201 -4 z "},"\"":{"ha":394,"x_min":60,"x_max":338,"o":"m 83 694 l 60 957 l 164 964 l 176 933 l 146 696 l 83 694 m 243 696 l 219 957 l 324 964 l 338 933 l 307 696 l 243 696 z "},"#":{"ha":824,"x_min":42,"x_max":778,"o":"m 51 349 l 42 404 l 51 421 l 240 421 l 292 588 l 128 588 l 118 643 l 128 661 l 315 661 l 400 931 l 471 931 l 482 911 l 403 661 l 526 661 l 611 931 l 679 931 l 690 911 l 613 661 l 769 661 q 778 651 778 661 l 778 588 l 589 588 l 538 421 l 707 421 q 715 411 715 421 l 715 349 l 515 349 l 428 67 l 360 67 l 347 85 l 429 349 l 304 349 l 215 67 l 147 67 l 135 85 l 217 349 l 51 349 m 326 421 l 451 421 l 504 588 l 379 588 l 326 421 z "},"$":{"ha":658,"x_min":63,"x_max":607,"o":"m 297 -150 l 297 -6 q 78 40 168 -3 l 63 254 l 143 254 l 181 117 q 297 89 233 92 l 297 464 q 141 552 181 517 q 82 627 101 588 q 63 719 63 667 q 81 811 63 771 q 132 881 100 851 q 297 956 196 942 l 297 1069 l 378 1069 l 378 958 q 558 915 456 954 l 576 701 l 500 701 l 442 849 q 378 865 410 861 l 378 536 l 399 528 q 597 333 568 449 q 607 253 607 299 q 589 164 607 208 q 540 86 571 119 q 378 0 481 21 l 378 -150 l 297 -150 m 378 97 q 469 149 431 111 q 508 245 508 186 q 484 345 508 304 q 389 422 460 386 q 378 428 381 425 l 378 97 m 172 785 q 161 732 161 763 q 172 676 161 701 q 203 633 183 651 q 297 571 236 599 l 297 864 q 172 785 204 849 z "},"%":{"ha":883,"x_min":53,"x_max":832,"o":"m 172 0 l 107 0 l 103 18 l 717 961 l 776 961 l 775 940 l 172 0 m 564 238 l 564 232 q 611 83 564 126 q 658 67 629 67 q 705 84 686 67 q 733 128 724 101 q 753 238 753 175 q 706 389 753 344 q 657 406 686 406 q 569 290 582 406 q 564 238 565 261 m 483 238 l 483 246 q 524 401 483 338 q 657 478 571 478 q 794 399 747 478 q 832 238 832 333 q 739 17 832 82 q 656 -6 706 -6 q 573 17 606 -6 q 521 76 540 40 q 483 238 486 140 m 133 719 l 133 714 q 181 565 133 608 q 227 549 199 549 q 274 566 256 549 q 303 608 293 583 q 322 719 322 656 q 275 869 322 826 q 226 886 256 886 q 151 826 175 886 q 133 719 138 790 m 53 719 l 53 728 q 93 883 53 817 q 226 960 140 960 q 363 881 315 960 q 401 719 401 815 q 310 497 401 561 q 226 475 276 475 q 142 499 175 475 q 90 558 110 522 q 53 719 56 619 z "},"&":{"ha":836,"x_min":49,"x_max":817,"o":"m 556 775 q 381 506 556 636 l 435 433 q 569 254 475 367 q 646 474 621 344 l 589 474 l 571 553 l 740 553 l 750 536 q 689 301 738 435 q 650 215 671 254 l 632 182 q 744 90 714 90 q 793 107 760 90 q 817 8 800 58 q 761 -1 789 -1 q 582 107 688 -1 q 338 -6 488 -6 q 125 72 204 -6 q 49 247 49 144 q 114 419 49 336 q 249 539 165 488 l 239 557 q 212 601 226 579 q 186 647 197 624 q 160 743 160 703 q 172 818 160 783 q 208 883 183 853 q 369 958 268 958 q 497 908 443 958 q 556 775 556 856 m 518 178 q 331 429 449 263 q 297 472 308 456 q 203 385 229 422 q 150 240 150 315 q 210 122 150 168 q 326 82 264 82 q 518 178 440 82 m 336 565 q 467 765 467 669 q 447 832 467 807 q 372 878 414 878 q 309 867 331 878 q 275 839 288 857 q 250 760 250 807 q 275 665 250 713 q 336 565 300 617 z "},"'":{"ha":236,"x_min":61,"x_max":178,"o":"m 85 696 l 61 957 l 165 964 l 178 933 l 147 696 l 85 696 z "},"(":{"ha":358,"x_min":75,"x_max":311,"o":"m 228 -225 q 75 403 75 94 q 128 794 75 607 q 228 1031 167 928 l 311 1031 q 186 608 222 864 q 174 403 174 513 q 189 197 174 293 q 225 19 204 100 q 311 -225 251 -76 l 228 -225 z "},")":{"ha":360,"x_min":49,"x_max":285,"o":"m 285 403 q 132 -225 285 94 l 49 -225 q 132 11 108 -76 q 186 404 186 214 q 94 926 186 693 q 49 1031 71 989 l 132 1031 q 269 615 231 864 q 285 403 285 517 z "},"*":{"ha":461,"x_min":57,"x_max":404,"o":"m 261 960 l 272 946 l 244 800 l 361 901 l 403 849 l 397 833 l 260 775 l 404 721 l 378 661 l 360 656 l 243 751 l 267 596 l 201 590 l 189 604 l 215 749 l 100 649 l 61 701 l 64 718 l 203 775 l 57 829 l 85 889 l 100 894 l 217 799 l 194 954 l 261 960 m 221 775 l 226 767 l 236 767 l 240 775 l 235 783 l 226 783 l 221 775 z "},"+":{"ha":608,"x_min":44,"x_max":561,"o":"m 339 760 l 339 525 l 561 525 l 561 438 l 339 438 l 339 186 l 268 186 l 251 197 l 251 438 l 44 438 l 44 507 l 56 525 l 251 525 l 251 760 l 339 760 z "},",":{"ha":276,"x_min":46,"x_max":194,"o":"m 182 178 q 194 90 194 128 q 187 18 194 53 q 165 -49 179 -17 q 96 -157 133 -122 l 46 -132 l 46 -112 l 106 -1 l 74 160 l 182 178 z "},"-":{"ha":524,"x_min":88,"x_max":436,"o":"m 88 349 l 88 425 l 99 436 l 428 436 q 436 426 436 436 l 436 349 l 88 349 z "},".":{"ha":286,"x_min":71,"x_max":215,"o":"m 142 -4 q 127 -4 142 -4 q 92 17 113 -4 q 71 67 71 38 q 92 119 71 97 q 142 140 113 140 q 194 119 172 140 q 215 67 215 97 q 194 17 215 38 q 142 -4 172 -4 z "},"/":{"ha":607,"x_min":33,"x_max":575,"o":"m 104 0 l 38 0 l 33 18 l 504 961 l 575 961 l 574 940 l 104 0 z "},":":{"ha":319,"x_min":88,"x_max":232,"o":"m 160 246 q 145 246 160 246 q 109 267 131 246 q 88 317 88 288 q 109 369 88 347 q 160 390 131 390 q 211 369 190 390 q 232 317 232 347 q 211 267 232 288 q 160 246 190 246 m 160 538 q 145 538 160 538 q 109 558 131 538 q 88 609 88 579 q 109 660 88 639 q 160 682 131 682 q 211 660 190 682 q 232 609 232 639 q 211 558 232 579 q 160 538 190 538 z "},";":{"ha":317,"x_min":78,"x_max":226,"o":"m 78 -132 l 128 -157 q 189 -69 165 -122 q 226 85 226 18 q 214 178 226 128 l 106 160 l 138 -1 l 78 -112 l 78 -132 m 151 288 q 136 288 151 288 q 99 308 121 288 q 78 359 78 329 q 99 410 78 389 q 151 432 121 432 q 201 410 181 432 q 222 359 222 389 q 201 308 222 329 q 151 288 181 288 z "},"<":{"ha":557,"x_min":40,"x_max":453,"o":"m 453 672 l 167 471 l 453 271 l 453 172 l 40 461 l 40 483 l 453 768 l 453 672 z "},"=":{"ha":608,"x_min":94,"x_max":514,"o":"m 94 431 l 514 431 l 514 343 l 94 343 l 94 431 m 94 603 l 514 603 l 514 515 l 94 515 l 94 603 z "},">":{"ha":557,"x_min":104,"x_max":517,"o":"m 104 768 l 517 483 l 517 461 l 104 172 l 104 271 l 390 471 l 104 672 l 104 768 z "},"?":{"ha":551,"x_min":65,"x_max":507,"o":"m 224 349 l 225 331 l 144 329 q 142 381 142 343 q 161 454 142 419 q 210 515 181 489 q 273 563 239 540 q 336 611 307 585 q 404 754 404 671 q 382 825 404 803 q 267 871 339 871 q 174 858 217 871 l 136 725 l 65 725 l 92 924 q 268 958 199 958 q 381 943 338 958 q 453 900 425 928 q 507 760 507 847 q 375 533 507 629 q 292 476 336 506 q 224 349 224 431 m 194 -4 q 179 -4 194 -4 q 142 17 164 -4 q 121 67 121 38 q 142 119 121 97 q 194 140 164 140 q 244 119 224 140 q 265 67 265 97 q 244 17 265 38 q 194 -4 224 -4 z "},"@":{"ha":1121,"x_min":58,"x_max":1049,"o":"m 692 39 q 551 -6 639 -6 q 371 69 440 -6 q 297 281 297 147 q 392 511 297 438 q 556 567 461 567 q 674 540 618 567 l 733 568 l 764 560 l 764 118 q 808 82 764 82 q 911 160 865 82 q 954 322 954 235 q 928 480 954 408 q 853 603 901 551 q 579 711 750 711 q 274 592 396 711 q 153 299 153 472 q 184 135 153 214 q 270 -3 215 57 q 399 -99 325 -62 q 563 -135 472 -135 q 729 -104 654 -135 l 747 -110 l 724 -199 q 545 -222 642 -222 q 358 -179 449 -222 q 200 -64 267 -136 q 96 103 133 8 q 58 303 58 199 q 101 498 58 407 q 215 656 143 589 q 383 760 288 722 q 582 799 478 799 q 919 664 789 799 q 1049 319 1049 533 q 986 100 1049 196 q 804 -6 917 -6 q 692 39 725 -6 m 669 451 q 563 479 621 479 q 410 386 457 479 q 390 285 390 349 q 407 183 390 222 q 450 121 424 143 q 558 82 494 82 q 669 117 621 82 l 669 451 z "},"A":{"ha":792,"x_min":-3,"x_max":786,"o":"m 506 0 l 506 61 l 618 90 l 544 335 l 235 335 l 163 86 l 285 63 l 285 0 l 15 0 l -3 65 l 72 90 l 338 960 l 454 960 l 721 90 l 786 65 l 771 0 l 506 0 m 388 856 l 261 422 l 518 422 l 388 856 z "},"B":{"ha":774,"x_min":76,"x_max":708,"o":"m 251 436 l 251 94 l 429 94 q 571 150 525 94 q 610 271 610 197 q 552 389 610 342 q 407 436 494 436 l 251 436 m 568 701 q 458 853 568 815 q 363 865 418 865 l 251 865 l 251 524 l 383 524 q 525 579 474 524 q 568 701 568 626 m 667 708 q 544 492 667 557 q 647 425 618 458 q 708 260 708 357 q 624 64 708 131 q 401 0 543 0 l 86 0 l 76 78 l 156 94 l 156 871 l 76 878 l 76 960 l 365 960 q 589 886 508 960 q 667 708 667 818 z "},"C":{"ha":772,"x_min":56,"x_max":729,"o":"m 525 89 q 694 138 618 89 l 729 53 q 635 11 693 28 q 518 -6 576 -6 q 181 133 311 -6 q 56 481 56 267 q 90 665 56 578 q 185 818 124 753 q 521 960 317 960 q 683 942 596 960 l 708 722 l 629 722 l 596 858 q 572 863 585 860 q 524 865 558 865 q 254 749 358 865 q 154 483 157 640 q 250 206 157 313 q 525 89 351 89 z "},"D":{"ha":840,"x_min":76,"x_max":779,"o":"m 76 78 l 156 96 l 156 871 l 76 878 l 76 960 l 275 960 q 633 844 501 960 q 779 485 779 717 q 647 119 779 243 q 293 0 522 0 l 86 0 l 76 78 m 681 490 q 654 638 681 568 q 578 758 628 708 q 289 865 474 865 l 251 865 l 251 94 l 313 94 q 606 217 513 94 q 681 490 681 317 z "},"E":{"ha":726,"x_min":76,"x_max":671,"o":"m 76 878 l 76 960 l 629 960 l 657 722 l 590 722 l 543 865 l 251 865 l 251 524 l 476 524 l 476 436 l 251 436 l 251 94 l 557 94 l 606 238 l 671 238 l 644 0 l 86 0 l 76 78 l 156 94 l 156 871 l 76 878 z "},"F":{"ha":683,"x_min":76,"x_max":658,"o":"m 456 0 l 85 0 l 76 78 l 156 94 l 156 871 l 76 878 l 76 960 l 629 960 l 658 722 l 592 722 l 543 867 l 251 867 l 251 524 l 476 524 l 476 436 l 251 436 l 251 100 l 463 71 l 456 0 z "},"G":{"ha":843,"x_min":56,"x_max":756,"o":"m 263 196 q 385 117 314 144 q 536 89 457 89 q 660 99 615 89 l 660 331 l 489 350 l 514 435 l 756 435 l 756 24 q 544 -6 657 -6 q 344 30 432 -6 q 192 128 256 65 q 56 472 56 263 q 186 822 56 689 q 536 960 321 960 q 729 935 629 960 l 744 721 l 657 721 l 625 858 q 529 865 572 865 q 250 751 354 865 q 154 476 154 644 q 263 196 154 304 z "},"H":{"ha":911,"x_min":75,"x_max":836,"o":"m 661 89 l 661 450 l 250 450 l 250 89 l 331 83 l 331 0 l 86 0 l 79 78 l 156 89 l 156 871 l 75 876 l 75 960 l 321 960 l 326 882 l 250 871 l 250 538 l 661 538 l 661 871 l 581 876 l 581 960 l 825 960 l 832 882 l 756 871 l 756 89 l 836 83 l 836 0 l 590 0 l 585 78 l 661 89 z "},"I":{"ha":407,"x_min":76,"x_max":331,"o":"m 156 89 l 156 871 l 76 876 l 76 960 l 321 960 l 326 882 l 251 871 l 251 89 l 331 83 l 331 0 l 86 0 l 81 78 l 156 89 z "},"J":{"ha":497,"x_min":15,"x_max":438,"o":"m 69 142 q 192 86 125 86 q 242 105 221 86 q 263 171 263 124 l 263 871 l 161 882 l 169 960 l 438 960 l 438 876 l 357 871 l 357 200 q 288 22 357 71 q 193 -6 247 -6 q 15 61 92 -6 l 69 142 z "},"K":{"ha":825,"x_min":76,"x_max":801,"o":"m 156 89 l 156 871 l 76 876 l 76 960 l 321 960 l 326 882 l 251 871 l 251 397 l 640 876 l 531 885 l 531 960 l 794 960 l 794 882 l 747 872 l 469 529 l 718 92 l 801 79 l 801 0 l 654 0 l 404 449 l 251 260 l 251 89 l 331 83 l 331 0 l 86 0 l 81 78 l 156 89 z "},"L":{"ha":689,"x_min":75,"x_max":669,"o":"m 75 876 l 75 960 l 333 960 l 339 882 l 250 871 l 250 94 l 556 94 l 604 238 l 669 238 l 643 0 l 85 0 l 75 78 l 154 89 l 154 871 l 75 876 z "},"M":{"ha":1154,"x_min":75,"x_max":1083,"o":"m 314 960 l 585 121 l 844 960 l 1064 960 l 1072 876 l 1000 869 l 1000 93 l 1083 76 l 1083 0 l 833 0 l 826 76 l 904 94 l 904 883 l 636 21 l 515 21 l 243 865 l 243 92 l 331 78 l 331 0 l 86 0 l 75 78 l 156 94 l 156 871 l 76 878 l 76 960 l 314 960 z "},"N":{"ha":915,"x_min":75,"x_max":854,"o":"m 242 874 l 242 92 l 335 78 l 335 0 l 86 0 l 75 78 l 156 94 l 156 871 l 75 878 l 75 960 l 307 960 l 682 104 l 682 868 l 593 882 l 593 960 l 840 960 l 854 882 l 769 865 l 769 0 l 624 0 l 242 874 z "},"O":{"ha":896,"x_min":69,"x_max":826,"o":"m 449 -6 q 161 147 264 -6 q 69 476 69 282 q 161 806 69 671 q 278 917 207 874 q 449 960 350 960 q 619 917 547 960 q 736 806 690 874 q 826 476 826 669 q 736 147 826 283 q 619 37 690 79 q 449 -6 547 -6 m 168 474 q 232 211 168 315 q 449 89 306 89 q 664 211 590 89 q 728 474 728 315 q 664 740 728 633 q 449 865 589 865 q 232 740 307 865 q 168 474 168 633 z "},"P":{"ha":722,"x_min":76,"x_max":686,"o":"m 326 461 q 539 525 478 461 q 588 667 588 574 q 517 817 588 765 q 340 865 451 865 l 251 865 l 251 461 l 326 461 m 76 76 l 156 94 l 156 871 l 76 878 l 76 960 l 304 960 q 608 865 511 960 q 686 668 686 790 q 578 438 686 517 q 331 367 481 367 l 251 367 l 251 97 l 446 71 l 446 0 l 86 0 l 76 76 z "},"Q":{"ha":901,"x_min":69,"x_max":833,"o":"m 579 -265 q 361 -78 464 -172 l 393 -40 l 689 -142 l 696 -181 l 579 -265 m 451 -6 q 161 147 267 -6 q 69 476 69 282 q 161 806 69 671 q 281 917 208 874 q 451 960 353 960 q 622 917 550 960 q 742 806 694 874 q 833 476 833 668 q 742 147 833 285 q 622 37 694 79 q 451 -6 550 -6 m 171 474 q 235 211 171 315 q 451 89 308 89 q 667 211 593 89 q 731 474 731 315 q 667 742 731 633 q 451 867 592 867 q 235 742 310 867 q 171 474 171 633 z "},"R":{"ha":756,"x_min":76,"x_max":708,"o":"m 378 369 q 317 367 347 367 l 251 367 l 251 97 l 360 71 l 360 0 l 86 0 l 76 76 l 156 94 l 156 871 l 76 878 l 76 960 l 318 960 q 658 800 578 960 q 686 678 686 744 q 670 567 686 611 q 625 489 654 522 q 476 392 569 421 l 618 90 l 708 71 l 708 0 l 544 0 l 378 369 m 326 461 q 588 667 588 461 q 519 819 588 767 q 354 865 460 865 l 251 865 l 251 461 l 326 461 z "},"S":{"ha":682,"x_min":75,"x_max":619,"o":"m 156 254 l 193 117 q 306 89 251 89 q 395 99 360 89 q 458 128 431 108 q 521 251 521 174 q 497 345 521 304 q 409 417 472 386 q 288 474 346 449 q 183 531 231 499 q 106 608 136 563 q 75 715 75 653 q 98 822 75 778 q 160 896 121 865 q 357 960 242 960 q 571 915 453 960 l 589 701 l 513 701 l 454 849 q 363 867 411 867 q 283 858 314 867 q 228 833 253 850 q 174 742 174 796 q 196 656 174 688 q 252 603 218 625 q 328 563 286 581 q 422 522 371 546 q 515 467 474 499 q 578 401 556 435 q 619 270 619 342 q 595 149 619 199 q 531 64 571 99 q 324 -6 447 -6 q 90 40 188 -6 l 75 254 l 156 254 z "},"T":{"ha":760,"x_min":25,"x_max":735,"o":"m 176 0 l 176 72 l 333 97 l 333 865 l 143 865 l 89 731 l 25 731 l 57 960 l 703 960 l 735 731 l 671 731 l 617 865 l 428 865 l 428 97 l 588 72 l 588 0 l 176 0 z "},"U":{"ha":872,"x_min":53,"x_max":821,"o":"m 579 876 l 579 960 l 815 960 l 821 882 l 744 871 l 744 281 q 654 69 744 147 q 435 -6 568 -6 q 218 72 301 -6 q 133 281 133 151 l 133 871 l 53 876 l 53 960 l 299 960 l 304 882 l 228 871 l 228 296 q 285 142 228 196 q 443 88 342 88 q 642 200 592 88 q 658 296 658 239 l 658 871 l 579 876 z "},"V":{"ha":781,"x_min":11,"x_max":778,"o":"m 285 960 l 285 899 l 163 869 l 394 154 l 632 874 l 506 897 l 506 960 l 778 960 l 778 894 l 722 869 l 433 0 l 343 0 l 61 869 l 11 894 l 11 960 l 285 960 z "},"W":{"ha":1189,"x_min":18,"x_max":1175,"o":"m 279 960 l 279 899 l 171 869 l 328 122 l 543 928 l 661 928 l 872 114 l 1031 874 l 922 897 l 922 960 l 1175 960 l 1175 894 l 1119 869 l 935 0 l 808 0 l 599 800 l 390 0 l 251 0 l 72 869 l 18 894 l 18 960 l 279 960 z "},"X":{"ha":786,"x_min":28,"x_max":769,"o":"m 28 0 l 28 75 l 90 85 l 333 482 l 96 871 l 31 886 l 31 960 l 301 960 l 301 900 l 203 879 l 400 557 l 579 879 l 497 893 l 497 960 l 746 960 l 746 885 l 683 875 l 451 474 l 681 104 l 769 72 l 769 0 l 494 0 l 494 72 l 581 81 l 383 401 l 193 81 l 274 67 l 274 0 l 28 0 z "},"Y":{"ha":749,"x_min":10,"x_max":735,"o":"m 263 960 l 263 886 l 175 872 l 386 458 l 581 874 l 496 885 l 496 960 l 735 960 l 735 876 l 675 863 l 424 338 l 424 97 l 583 72 l 571 0 l 182 0 l 168 72 l 329 97 l 329 357 l 69 864 l 10 876 l 10 960 l 263 960 z "},"Z":{"ha":753,"x_min":65,"x_max":685,"o":"m 676 839 l 176 94 l 592 94 l 619 236 l 685 236 l 685 0 l 78 0 l 65 104 l 576 865 l 165 865 l 138 724 l 72 724 l 72 960 l 663 960 l 676 839 z "},"[":{"ha":425,"x_min":113,"x_max":417,"o":"m 122 929 l 408 929 q 417 918 417 929 l 417 843 l 207 843 l 207 -162 l 417 -162 l 417 -237 q 408 -249 417 -249 l 131 -249 l 113 -226 l 113 910 l 122 929 z "},"\\":{"ha":629,"x_min":32,"x_max":596,"o":"m 32 946 l 33 960 l 125 960 l 596 18 l 592 0 l 507 0 l 32 946 z "},"]":{"ha":425,"x_min":8,"x_max":313,"o":"m 313 910 l 313 -226 l 294 -249 l 17 -249 q 8 -237 8 -249 l 8 -162 l 218 -162 l 218 843 l 8 843 l 8 918 q 17 929 8 929 l 303 929 l 313 910 z "},"^":{"ha":489,"x_min":72,"x_max":417,"o":"m 72 808 l 235 1006 l 256 1006 l 417 811 l 413 801 l 336 801 l 244 897 l 153 801 l 78 801 l 72 808 z "},"_":{"ha":796,"x_min":14,"x_max":782,"o":"m 14 -87 l 14 -18 l 31 0 l 774 0 q 782 -10 782 0 l 782 -87 l 14 -87 z "},"`":{"ha":394,"x_min":76,"x_max":318,"o":"m 271 768 l 76 935 l 138 1008 l 174 1008 l 318 814 l 271 768 z "},"a":{"ha":622,"x_min":57,"x_max":585,"o":"m 428 56 q 264 -6 361 -6 q 119 43 178 -6 q 57 172 57 94 q 95 292 57 249 q 189 358 133 335 q 421 400 278 396 l 421 489 q 388 560 421 533 q 299 586 354 586 q 203 568 232 586 l 181 494 l 67 515 q 156 628 90 588 q 290 665 214 665 q 457 612 406 665 q 508 468 508 558 l 508 110 q 540 69 508 69 q 569 76 553 69 l 585 24 q 508 -6 556 -6 q 428 56 444 -6 m 178 256 q 149 181 149 228 q 182 103 149 133 q 267 74 215 74 q 421 150 371 74 l 421 322 q 178 256 247 322 z "},"b":{"ha":672,"x_min":8,"x_max":614,"o":"m 176 31 q 126 0 133 0 l 104 0 l 104 918 l 19 913 l 8 985 l 154 1010 l 192 968 l 192 614 q 333 665 254 665 q 463 638 413 665 q 547 567 514 611 q 614 336 614 475 q 544 100 614 194 q 326 -6 467 -6 q 176 31 239 -6 m 192 118 q 313 74 247 74 q 417 96 379 74 q 479 156 456 118 q 522 329 522 222 q 424 563 522 499 q 342 586 388 586 q 253 567 296 586 q 192 515 211 547 l 192 118 z "},"c":{"ha":563,"x_min":60,"x_max":532,"o":"m 524 43 q 344 -6 461 -6 q 128 94 204 -6 q 60 324 60 185 q 215 636 60 556 q 339 665 269 665 q 532 614 463 665 l 471 518 l 389 583 q 363 586 378 586 l 339 586 q 189 501 236 586 q 151 322 151 433 q 258 94 151 153 q 367 74 297 74 q 500 111 436 74 l 524 43 z "},"d":{"ha":688,"x_min":58,"x_max":644,"o":"m 346 665 q 481 638 418 665 l 481 918 l 396 913 l 385 985 l 531 1010 l 568 968 l 568 110 q 600 69 568 69 q 629 76 611 69 l 644 21 q 563 -6 618 -6 q 489 51 507 -6 q 344 -6 426 -6 q 211 24 263 -6 q 125 100 160 53 q 58 326 58 192 q 131 565 58 472 q 346 665 207 665 m 481 538 q 353 586 438 586 q 194 506 250 586 q 150 332 150 439 q 253 97 150 163 q 336 74 289 74 q 481 144 435 74 l 481 538 z "},"e":{"ha":615,"x_min":58,"x_max":557,"o":"m 553 47 q 360 -6 481 -6 q 133 90 214 -6 q 58 322 58 179 q 135 564 58 469 q 350 665 215 665 q 496 617 438 665 q 557 488 557 567 q 519 364 557 408 q 421 296 481 319 q 154 257 322 257 q 219 124 168 176 q 365 72 269 72 q 529 122 461 72 l 553 47 m 174 339 q 350 356 297 339 q 434 402 403 374 q 465 483 465 431 q 428 563 465 535 q 348 586 396 586 q 264 566 300 586 q 203 511 228 546 q 150 339 153 440 l 174 339 z "},"f":{"ha":432,"x_min":33,"x_max":465,"o":"m 319 931 l 294 932 q 231 876 238 932 q 228 844 228 861 l 228 665 l 381 665 q 388 657 388 665 l 388 586 l 228 586 l 228 85 l 381 63 l 381 0 l 69 0 l 58 61 l 140 81 l 140 586 l 53 586 l 33 650 l 43 665 l 140 665 l 140 828 q 180 959 140 908 q 310 1010 219 1010 q 465 958 379 1010 l 397 864 l 319 931 z "},"g":{"ha":661,"x_min":31,"x_max":647,"o":"m 164 221 q 65 421 65 289 q 135 597 65 531 q 310 665 206 665 q 481 608 415 665 l 607 671 l 633 667 l 647 572 l 526 557 q 564 433 564 499 q 545 323 564 368 q 493 246 526 278 q 314 178 422 178 q 242 186 275 178 l 213 143 l 217 114 q 271 99 246 106 q 321 85 296 92 l 363 75 q 508 18 468 47 q 567 -46 549 -11 q 585 -135 585 -81 q 560 -235 585 -190 q 497 -308 536 -279 q 301 -368 418 -368 q 114 -311 190 -368 q 31 -146 31 -250 q 113 14 31 -50 q 158 43 135 32 q 113 119 113 74 q 164 221 113 165 m 247 8 q 157 -48 196 -10 q 118 -133 118 -86 q 137 -205 118 -179 q 183 -247 156 -231 q 291 -281 239 -281 q 378 -271 343 -281 q 442 -244 414 -261 q 506 -142 506 -206 q 419 -37 506 -72 q 336 -12 382 -22 q 247 8 290 -3 m 314 586 q 198 540 239 586 q 157 422 157 493 q 198 304 157 351 q 314 257 239 257 q 431 304 389 257 q 472 422 472 351 q 431 540 472 493 q 314 586 389 586 z "},"h":{"ha":692,"x_min":33,"x_max":660,"o":"m 369 586 q 210 526 278 586 l 210 81 l 288 63 l 288 0 l 49 0 l 42 61 l 122 81 l 122 918 l 46 918 l 33 986 l 169 1010 l 210 968 l 210 613 q 379 665 286 665 q 524 615 472 665 q 575 464 575 564 l 575 81 l 660 61 l 660 0 l 410 0 l 404 61 l 488 81 l 488 454 q 369 586 488 586 z "},"i":{"ha":346,"x_min":47,"x_max":307,"o":"m 222 626 l 222 82 l 307 61 l 307 0 l 64 0 l 51 60 l 135 81 l 135 578 l 60 572 l 47 643 l 185 668 l 222 626 m 82 932 q 103 984 82 963 q 154 1006 124 1006 q 206 984 185 1006 q 228 932 228 963 q 206 881 228 901 q 154 860 185 860 q 103 881 124 860 q 82 932 82 901 z "},"j":{"ha":317,"x_min":-36,"x_max":219,"o":"m 74 932 q 94 984 74 963 q 146 1006 115 1006 q 198 984 176 1006 q 219 932 219 963 q 198 881 219 901 q 146 860 176 860 q 94 881 115 860 q 74 932 74 901 m 10 -264 q 81 -301 47 -301 q 121 -276 114 -301 q 128 -217 128 -251 l 128 578 l 32 571 l 21 642 l 178 668 l 215 626 l 215 -231 q 194 -325 215 -296 q 82 -379 154 -379 q -36 -331 13 -379 l 10 -264 z "},"k":{"ha":636,"x_min":33,"x_max":607,"o":"m 210 968 l 210 376 l 454 603 l 397 603 l 386 668 l 578 668 l 597 631 l 364 413 l 535 76 l 607 61 l 607 0 l 469 0 l 292 347 l 210 269 l 210 81 l 288 63 l 288 0 l 49 0 l 42 61 l 122 81 l 122 918 l 46 918 l 33 986 l 172 1010 l 210 968 z "},"l":{"ha":335,"x_min":35,"x_max":296,"o":"m 211 968 l 211 79 l 296 61 l 296 0 l 42 0 l 35 61 l 124 81 l 124 918 l 47 918 l 35 986 l 171 1010 l 211 968 z "},"m":{"ha":1065,"x_min":44,"x_max":1033,"o":"m 549 596 q 740 665 638 665 q 949 464 949 665 l 949 81 l 1033 61 l 1033 0 l 783 0 l 778 61 l 861 81 l 861 454 q 743 586 861 586 q 668 575 711 586 q 581 517 625 564 q 585 464 585 492 l 585 81 l 669 61 l 669 0 l 419 0 l 414 61 l 497 81 l 497 454 q 379 586 497 586 q 219 528 286 586 l 219 82 l 304 61 l 304 0 l 64 0 l 56 60 l 132 81 l 132 583 l 57 578 l 44 643 l 185 668 l 215 611 q 301 651 254 638 q 386 665 349 665 q 549 596 497 665 z "},"n":{"ha":701,"x_min":44,"x_max":669,"o":"m 379 586 q 219 528 286 586 l 219 82 l 304 61 l 304 0 l 64 0 l 56 60 l 132 81 l 132 583 l 57 578 l 44 643 l 185 668 l 215 611 q 388 665 293 665 q 533 615 482 665 q 585 464 585 564 l 585 81 l 669 61 l 669 0 l 419 0 l 414 61 l 497 81 l 497 454 q 379 586 497 586 z "},"o":{"ha":679,"x_min":58,"x_max":621,"o":"m 58 335 q 76 461 58 400 q 131 568 94 522 q 339 668 207 668 q 553 565 479 668 q 621 333 621 472 q 553 100 621 194 q 339 -6 479 -6 q 126 100 204 -6 q 58 335 58 193 m 191 492 q 180 472 191 492 q 160 403 169 451 q 150 314 150 356 q 160 229 150 272 q 194 153 171 186 q 339 75 246 75 q 488 156 438 75 q 529 326 529 224 q 428 564 529 494 q 338 588 392 588 q 249 560 285 588 q 191 492 213 532 z "},"p":{"ha":694,"x_min":31,"x_max":636,"o":"m 346 -6 q 214 22 269 -6 l 214 -289 l 382 -318 l 382 -379 l 57 -379 l 44 -318 l 126 -299 l 126 578 l 42 572 l 31 643 l 176 668 l 214 618 q 357 665 279 665 q 485 638 435 665 q 569 567 536 611 q 636 336 636 475 q 567 100 636 194 q 346 -6 489 -6 m 214 118 q 335 74 269 74 q 440 96 401 74 q 501 156 478 118 q 544 329 544 222 q 446 563 544 499 q 364 586 410 586 q 276 567 318 586 q 214 515 233 547 l 214 118 z "},"q":{"ha":671,"x_min":58,"x_max":650,"o":"m 488 626 l 519 667 l 568 653 l 568 -299 l 650 -318 l 650 -379 l 322 -379 l 313 -318 l 481 -281 l 481 44 q 329 -6 422 -6 q 138 81 211 -6 q 58 325 58 174 q 161 599 58 506 q 331 668 238 668 q 488 626 424 668 m 481 538 q 432 571 467 554 q 358 588 397 588 q 283 576 318 588 q 218 536 247 565 q 150 332 150 471 q 214 128 150 194 q 326 75 264 75 q 427 97 389 75 q 481 144 465 119 l 481 538 z "},"r":{"ha":536,"x_min":47,"x_max":524,"o":"m 221 611 q 361 668 283 668 q 524 576 457 668 l 418 525 l 371 589 q 276 553 321 589 q 221 433 221 510 l 221 89 l 415 61 l 415 0 l 64 0 l 51 61 l 133 81 l 133 576 l 58 576 l 47 643 l 183 667 l 221 611 z "},"s":{"ha":551,"x_min":44,"x_max":501,"o":"m 279 668 q 360 655 322 668 q 425 622 397 642 q 501 533 478 586 l 393 493 l 361 564 q 276 588 333 588 q 213 572 238 588 q 164 494 164 540 q 197 425 164 450 q 321 373 233 401 q 448 298 408 344 q 488 193 488 251 q 468 99 488 135 q 418 42 449 64 q 269 -6 356 -6 q 121 40 186 -6 q 44 128 74 74 l 153 169 l 185 97 q 278 75 222 75 q 346 93 319 75 q 396 172 396 128 q 364 250 396 222 q 244 306 335 274 q 72 486 72 360 q 133 619 72 571 q 279 668 193 668 z "},"t":{"ha":421,"x_min":10,"x_max":401,"o":"m 138 193 l 140 589 l 29 589 l 10 650 l 19 665 l 142 665 l 143 899 l 221 918 l 229 903 q 228 838 228 869 l 228 665 l 375 665 q 382 657 382 665 l 382 589 l 226 589 l 226 140 q 242 89 226 103 q 293 75 258 75 q 378 111 328 75 l 401 40 q 353 11 385 28 q 260 -6 322 -6 q 168 38 199 -6 q 138 147 138 81 l 138 193 z "},"u":{"ha":681,"x_min":26,"x_max":633,"o":"m 483 51 q 321 -6 414 -6 q 131 111 179 -6 q 114 217 114 153 l 114 576 l 39 576 l 26 643 l 167 668 l 201 629 l 201 221 q 253 94 201 128 q 331 75 283 75 q 420 94 379 75 q 478 140 461 114 l 478 576 l 403 576 l 393 643 l 532 669 l 565 629 l 565 101 q 597 71 565 71 l 622 75 l 633 26 q 604 6 625 17 q 554 -6 583 -6 q 483 51 499 -6 z "},"v":{"ha":610,"x_min":3,"x_max":594,"o":"m 267 0 l 67 592 l 14 592 l 3 658 l 142 668 l 322 128 l 499 592 l 436 592 l 429 658 l 568 668 l 594 617 l 356 0 l 267 0 z "},"w":{"ha":924,"x_min":10,"x_max":881,"o":"m 508 618 l 674 106 l 786 592 l 724 592 l 711 660 l 861 667 l 881 631 l 726 0 l 607 0 l 468 456 l 331 0 l 197 0 l 79 592 l 21 592 l 10 660 l 163 667 l 271 99 l 435 618 l 508 618 z "},"x":{"ha":633,"x_min":42,"x_max":594,"o":"m 56 0 l 42 72 l 100 72 l 258 338 l 100 585 l 42 585 l 42 665 l 157 665 l 328 401 l 486 665 l 583 665 l 583 592 l 538 592 l 376 326 l 536 81 l 594 81 l 594 0 l 476 0 l 307 261 l 151 0 l 56 0 z "},"y":{"ha":624,"x_min":4,"x_max":606,"o":"m 58 -257 q 139 -299 100 -299 q 225 -211 189 -299 q 240 -167 233 -187 l 276 -65 l 63 590 l 15 590 l 4 658 l 136 667 l 326 75 l 510 590 l 460 590 l 449 658 l 582 667 l 606 618 q 463 227 539 436 q 340 -103 386 18 q 281 -258 294 -225 q 247 -317 267 -290 q 138 -379 203 -379 q 15 -329 79 -379 l 58 -257 z "},"z":{"ha":594,"x_min":65,"x_max":526,"o":"m 526 583 l 175 81 l 439 81 l 461 211 l 526 211 l 526 0 l 65 0 l 65 81 l 407 583 l 153 583 l 131 468 l 65 468 l 65 665 l 526 665 l 526 583 z "},"{":{"ha":429,"x_min":19,"x_max":429,"o":"m 174 38 l 175 147 l 175 182 q 133 288 175 253 q 19 322 90 322 l 19 439 q 128 475 82 439 q 175 579 175 514 l 175 611 l 174 711 l 174 750 q 344 971 174 971 q 429 964 371 971 l 400 857 l 321 881 l 308 878 q 265 732 265 860 l 268 592 q 181 403 268 444 q 108 383 154 389 l 108 378 q 229 321 190 368 q 268 164 268 274 l 265 29 q 308 -129 265 -111 l 321 -133 l 400 -110 l 429 -215 q 338 -224 382 -224 q 260 -206 293 -224 q 208 -157 228 -187 q 174 -1 174 -103 l 174 38 z "},"|":{"ha":307,"x_min":114,"x_max":193,"o":"m 193 925 l 193 -231 l 114 -231 l 114 925 l 193 925 z "},"}":{"ha":431,"x_min":0,"x_max":411,"o":"m 256 711 l 254 611 l 254 579 q 303 475 254 514 q 411 439 347 439 l 411 322 q 297 288 339 322 q 254 182 254 253 l 254 147 l 256 38 l 256 -1 q 85 -224 256 -224 q 0 -215 47 -224 l 29 -110 l 108 -133 l 122 -129 q 156 -73 149 -118 q 164 29 164 -28 l 161 164 q 200 321 161 274 q 321 378 239 368 l 321 383 q 200 439 236 394 q 161 592 161 490 l 164 732 q 156 825 164 783 q 122 878 149 867 l 108 881 l 29 857 l 0 964 q 85 971 58 971 q 256 750 256 971 l 256 711 z "},"~":{"ha":538,"x_min":43,"x_max":499,"o":"m 499 835 q 368 782 436 782 q 319 790 342 782 q 275 808 297 799 q 231 825 253 817 q 181 833 208 833 q 133 814 154 833 q 103 769 113 794 l 43 806 q 102 892 60 863 q 181 921 144 921 q 242 912 217 921 q 290 892 268 903 q 369 863 349 863 l 447 921 l 499 835 z "}," ":{"ha":0,"x_min":0,"x_max":0,"o":""},"¡":{"ha":332,"x_min":90,"x_max":240,"o":"m 203 361 l 240 -229 l 211 -282 l 97 -265 l 122 361 l 203 361 m 162 538 q 147 538 162 538 q 111 559 132 538 q 90 610 90 581 q 111 661 90 640 q 162 682 132 682 q 213 661 192 682 q 235 610 235 640 q 213 559 235 581 q 162 538 192 538 z "},"¢":{"ha":567,"x_min":44,"x_max":524,"o":"m 515 43 q 375 -4 461 1 l 375 -219 l 294 -219 l 294 -3 q 106 108 171 14 q 44 324 44 197 q 183 622 44 531 q 294 663 229 654 l 294 846 l 375 846 l 375 664 q 524 614 467 654 l 463 518 l 381 583 l 375 585 l 375 74 q 492 111 439 79 l 515 43 m 136 324 q 144 242 136 282 q 172 169 153 203 q 294 79 213 97 l 294 583 q 169 488 213 568 q 136 324 136 422 z "},"£":{"ha":676,"x_min":38,"x_max":631,"o":"m 631 47 q 507 -6 561 -6 q 413 4 453 -6 q 339 25 374 14 q 205 57 244 57 q 142 38 165 57 q 113 -6 119 18 l 38 19 q 71 78 47 54 q 122 126 94 101 q 168 186 150 150 q 196 265 186 222 q 210 457 210 326 l 113 457 l 113 532 l 122 544 l 210 544 l 210 732 q 279 911 210 853 q 424 960 336 960 q 511 942 475 960 q 590 892 565 913 l 524 800 l 442 869 q 413 872 428 872 q 380 868 399 872 q 344 850 361 864 q 304 739 304 817 l 304 544 l 496 544 q 504 533 504 544 l 504 457 l 304 457 q 292 281 301 363 q 242 143 283 200 q 367 115 308 136 q 453 85 425 94 q 503 75 481 75 l 581 133 l 631 47 z "},"¤":{"ha":357,"x_min":124,"x_max":233,"o":"m 233 1111 l 233 494 l 124 494 l 124 1111 l 233 1111 m 124 -297 l 124 368 l 233 368 l 233 -297 l 124 -297 z "},"¥":{"ha":765,"x_min":39,"x_max":726,"o":"m 168 292 l 336 292 l 336 332 l 168 332 l 168 419 l 336 419 l 336 435 l 94 871 l 39 883 l 39 960 l 272 960 l 272 894 l 196 879 l 390 533 l 583 879 l 504 892 l 504 960 l 726 960 l 726 882 l 682 868 l 431 432 l 431 419 l 589 419 l 589 332 l 431 332 l 431 292 l 589 292 l 589 204 l 431 204 l 431 97 l 589 72 l 578 0 l 197 0 l 185 72 l 336 97 l 336 204 l 168 204 l 168 292 z "},"¦":{"ha":321,"x_min":117,"x_max":204,"o":"m 117 403 l 117 931 l 204 931 l 204 403 l 117 403 m 117 -240 l 117 279 l 204 279 l 204 -240 l 117 -240 z "},"§":{"ha":688,"x_min":74,"x_max":624,"o":"m 149 586 q 74 740 74 647 q 153 899 74 836 q 347 960 229 960 q 568 915 460 960 l 585 701 l 510 701 l 451 854 q 361 872 410 872 q 281 863 313 872 q 225 839 250 854 q 174 760 174 804 q 195 688 174 715 q 250 640 217 661 q 324 601 283 618 q 406 568 365 585 q 571 464 518 519 q 624 321 624 408 q 549 151 624 233 q 610 4 610 90 q 519 -167 610 -104 q 315 -224 438 -224 q 89 -178 203 -224 l 75 33 l 156 33 l 183 -114 q 321 -136 228 -136 q 492 -61 444 -136 q 508 5 508 -33 q 488 70 508 43 q 435 118 467 97 q 365 156 403 139 q 142 286 204 228 q 79 431 79 344 q 149 586 79 517 m 482 204 q 521 303 521 256 q 503 378 521 351 q 458 425 486 404 q 357 481 418 457 q 222 540 275 514 q 181 454 181 492 q 193 394 181 417 q 231 351 206 372 q 340 282 269 318 q 482 204 443 229 z "},"¨":{"ha":493,"x_min":72,"x_max":421,"o":"m 140 664 q 125 664 140 664 q 92 684 111 664 q 72 733 72 704 q 92 781 72 761 q 140 801 111 801 q 189 781 168 801 q 210 733 210 761 q 189 684 210 704 q 140 664 168 664 m 353 664 q 339 664 353 664 q 304 684 325 664 q 283 733 283 704 q 304 781 283 761 q 353 801 325 801 q 401 781 382 801 q 421 733 421 761 q 401 684 421 704 q 353 664 382 664 z "},"©":{"ha":1011,"x_min":57,"x_max":954,"o":"m 664 275 q 524 233 597 233 q 401 253 450 233 q 315 308 351 272 q 238 507 238 386 q 317 717 238 636 q 514 794 392 794 q 625 785 589 794 l 639 633 l 583 633 l 565 711 q 511 714 551 714 q 436 701 471 714 q 375 664 401 689 q 319 514 319 607 q 371 367 319 421 q 514 314 422 314 q 581 322 547 314 q 643 349 631 336 l 664 275 m 57 517 q 183 833 57 704 q 506 965 313 965 q 685 930 603 965 q 828 833 768 894 q 954 517 954 704 q 828 200 954 329 q 685 103 768 139 q 505 68 603 68 q 325 103 407 68 q 183 200 243 139 q 57 517 57 329 m 138 517 q 242 253 138 357 q 506 149 346 149 q 769 253 665 149 q 874 517 874 357 q 769 781 874 676 q 506 885 665 885 q 242 781 346 885 q 138 517 138 676 z "},"ª":{"ha":413,"x_min":60,"x_max":361,"o":"m 60 700 q 246 818 60 810 l 246 849 q 219 894 246 882 q 189 901 208 901 q 156 892 169 901 l 146 851 l 60 864 q 147 954 71 933 q 187 960 167 960 q 231 954 207 960 q 274 936 254 949 q 319 847 319 907 l 319 682 q 331 664 319 664 l 347 668 l 361 625 q 303 603 335 603 q 256 626 271 603 q 189 601 224 601 q 134 608 154 601 q 97 626 114 614 q 60 700 60 654 m 246 760 q 138 701 138 760 q 146 676 138 692 q 182 660 154 660 q 244 696 226 660 l 246 703 l 246 760 z "},"«":{"ha":631,"x_min":14,"x_max":567,"o":"m 367 711 l 126 469 l 367 228 l 310 171 l 14 468 l 310 768 l 367 711 m 567 682 l 356 469 l 567 257 l 510 200 l 243 468 l 510 739 l 567 682 z "},"¬":{"ha":833,"x_min":74,"x_max":733,"o":"m 646 579 l 74 579 l 74 654 l 83 667 l 721 667 l 733 656 l 733 371 q 722 361 733 361 l 646 361 l 646 579 z "},"­":{"ha":524,"x_min":67,"x_max":456,"o":"m 456 364 l 67 364 l 67 490 l 456 490 l 456 364 z "},"®":{"ha":1011,"x_min":57,"x_max":954,"o":"m 57 517 q 183 833 57 704 q 506 965 313 965 q 685 930 603 965 q 828 833 768 894 q 954 517 954 704 q 828 200 954 329 q 685 103 768 139 q 505 68 603 68 q 325 103 407 68 q 183 200 243 139 q 57 517 57 329 m 138 517 q 242 253 138 357 q 506 149 346 149 q 769 253 665 149 q 874 517 874 357 q 769 781 874 676 q 506 885 665 885 q 242 781 346 885 q 138 517 138 676 m 325 311 l 361 321 l 361 726 l 325 731 l 325 801 l 451 801 q 638 753 578 801 q 697 622 697 706 q 665 526 697 565 q 579 467 633 486 l 679 318 l 726 308 l 726 247 l 622 247 l 500 449 q 479 447 489 447 l 442 447 l 442 322 l 513 308 l 513 247 l 331 247 l 325 311 m 464 528 q 610 622 610 528 q 569 700 610 678 q 474 722 529 722 l 442 722 l 442 528 l 464 528 z "},"¯":{"ha":507,"x_min":79,"x_max":428,"o":"m 79 875 l 79 950 l 89 963 l 418 963 q 428 951 428 963 l 428 875 l 79 875 z "},"°":{"ha":367,"x_min":53,"x_max":314,"o":"m 53 875 q 85 978 53 938 q 183 1019 117 1019 q 282 978 250 1019 q 314 875 314 938 q 282 771 314 813 q 183 729 250 729 q 85 771 117 729 q 53 875 53 813 m 183 954 q 140 928 154 954 q 126 874 126 901 q 140 820 126 846 q 183 794 154 794 q 227 820 213 794 q 242 874 242 846 q 227 928 242 901 q 183 954 213 954 z "},"±":{"ha":668,"x_min":97,"x_max":568,"o":"m 376 778 l 376 624 l 568 624 l 568 536 l 376 536 l 376 379 l 300 379 l 289 397 l 289 536 l 97 536 l 97 603 l 115 624 l 289 624 l 289 778 l 376 778 m 568 235 l 97 235 l 97 315 l 108 332 l 568 332 l 568 235 z "},"²":{"ha":368,"x_min":58,"x_max":306,"o":"m 139 888 q 124 844 139 888 l 58 864 q 110 938 72 917 q 188 960 147 960 q 261 933 229 960 q 293 865 293 906 q 283 799 293 825 q 257 750 272 772 q 193 675 236 718 l 179 661 l 243 661 l 263 706 l 306 706 l 290 603 l 74 603 l 69 642 q 219 847 219 771 q 174 894 219 894 q 139 888 156 894 z "},"³":{"ha":367,"x_min":54,"x_max":313,"o":"m 231 789 q 313 706 313 774 q 274 628 313 654 q 183 603 235 603 q 54 650 106 603 l 94 704 q 128 679 110 690 q 180 668 147 668 q 226 683 213 668 q 239 711 239 697 q 144 753 239 753 l 144 814 q 221 858 221 814 q 212 883 221 871 q 178 894 203 894 q 144 886 154 894 l 128 843 l 60 864 q 104 933 72 906 q 186 960 136 960 q 282 906 250 960 q 292 865 292 889 q 278 818 292 842 q 231 789 264 794 z "},"´":{"ha":388,"x_min":72,"x_max":315,"o":"m 72 813 l 217 1006 l 254 1006 l 315 933 l 121 767 l 72 813 z "},"µ":{"ha":713,"x_min":43,"x_max":650,"o":"m 217 -6 l 218 -81 l 218 -381 l 131 -381 l 131 576 l 56 576 l 43 643 l 181 668 l 218 624 l 218 203 q 278 93 218 124 q 355 75 314 75 q 435 92 396 75 q 494 139 475 108 l 494 576 l 419 576 l 410 643 l 549 669 l 582 629 l 582 101 q 614 71 582 71 l 639 75 l 650 26 q 569 -6 622 -6 q 500 50 515 -6 q 356 -6 439 -6 q 218 35 274 -6 q 217 15 217 25 l 217 -6 z "},"¶":{"ha":726,"x_min":43,"x_max":642,"o":"m 129 497 q 65 584 88 533 q 43 687 43 635 q 59 786 43 739 q 111 872 75 833 q 347 960 192 960 l 642 960 l 642 878 l 583 878 l 583 0 l 504 0 l 504 878 l 460 878 l 460 174 q 450 107 460 117 q 335 -11 403 54 l 261 92 l 365 151 l 365 415 q 129 497 218 418 z "},"·":{"ha":319,"x_min":88,"x_max":232,"o":"m 88 554 l 219 554 l 232 542 l 232 354 l 88 354 l 88 554 z "},"¸":{"ha":553,"x_min":100,"x_max":453,"o":"m 215 -147 l 190 -121 l 243 21 l 338 21 l 307 -68 q 439 -156 401 -78 q 453 -219 453 -183 q 405 -335 453 -290 q 260 -379 357 -379 q 172 -367 208 -379 q 100 -342 135 -354 l 160 -228 l 263 -292 q 325 -273 300 -292 q 350 -225 350 -254 q 323 -172 350 -196 q 228 -147 296 -147 l 215 -147 z "},"¹":{"ha":306,"x_min":57,"x_max":247,"o":"m 71 650 l 124 661 l 124 882 l 69 874 l 57 922 l 186 963 l 199 956 l 199 665 l 247 653 l 247 603 l 75 603 l 71 650 z "},"º":{"ha":411,"x_min":54,"x_max":357,"o":"m 54 782 q 147 950 54 913 q 204 961 174 961 q 313 917 268 961 q 357 782 357 874 q 313 646 357 690 q 205 601 268 601 q 98 646 142 601 q 54 782 54 690 m 206 889 q 188 889 206 889 q 151 858 169 889 q 132 778 132 826 q 151 701 132 731 q 206 672 169 672 q 260 701 242 672 q 279 778 279 731 q 260 858 279 826 q 206 889 242 889 z "},"»":{"ha":632,"x_min":64,"x_max":617,"o":"m 264 228 l 504 469 l 264 711 l 321 768 l 617 471 l 321 171 l 264 228 m 64 257 l 275 469 l 64 682 l 121 739 l 388 471 l 121 200 l 64 257 z "},"¼":{"ha":831,"x_min":50,"x_max":786,"o":"m 528 51 l 644 67 l 644 163 l 440 163 l 440 251 l 644 522 l 718 522 l 718 228 l 786 228 l 786 163 l 718 163 l 718 65 l 768 57 l 768 0 l 531 0 l 528 51 m 176 -29 l 110 -29 l 106 -11 l 590 960 l 663 960 l 661 940 l 176 -29 m 71 486 l 131 496 l 131 882 l 61 874 l 50 922 l 193 963 l 206 956 l 206 500 l 254 489 l 254 438 l 75 438 l 71 486 m 644 228 l 644 417 l 501 228 l 644 228 z "},"½":{"ha":868,"x_min":49,"x_max":819,"o":"m 478 0 l 471 43 q 504 75 481 54 q 557 124 528 96 q 617 183 586 151 q 675 247 649 215 q 735 374 735 322 q 697 453 735 429 q 647 468 674 468 q 578 454 610 468 l 538 371 l 463 418 q 534 494 488 461 q 647 526 581 526 q 760 489 713 526 q 807 374 807 451 q 642 111 807 260 q 586 58 606 78 l 740 58 l 767 129 l 819 129 l 803 0 l 478 0 m 69 486 l 129 496 l 129 882 l 60 874 l 49 922 l 192 963 l 204 956 l 204 500 l 253 489 l 253 438 l 74 438 l 69 486 m 174 -29 l 107 -29 l 103 -11 l 588 960 l 660 960 l 658 940 l 174 -29 z "},"¾":{"ha":908,"x_min":47,"x_max":864,"o":"m 606 51 l 722 67 l 722 163 l 518 163 l 518 251 l 722 522 l 796 522 l 796 228 l 864 228 l 864 163 l 796 163 l 796 65 l 846 57 l 846 0 l 608 0 l 606 51 m 253 -29 l 186 -29 l 181 -11 l 667 960 l 739 960 l 736 940 l 253 -29 m 313 574 q 146 672 313 672 l 146 731 q 254 742 228 731 q 308 821 308 763 q 272 879 308 856 q 215 899 244 899 q 171 892 186 899 l 147 882 l 110 818 l 49 857 q 156 947 81 922 q 217 957 183 957 q 278 949 250 957 q 326 922 306 940 q 374 819 374 883 q 349 742 374 778 q 275 699 324 706 q 356 653 331 690 q 382 578 382 617 q 366 511 382 540 q 324 463 350 482 q 211 422 269 422 q 47 467 110 422 l 86 526 q 200 481 135 481 q 267 497 242 481 q 313 574 313 528 m 722 228 l 722 417 l 579 228 l 722 228 z "},"¿":{"ha":532,"x_min":36,"x_max":476,"o":"m 319 318 l 318 335 l 397 338 q 401 284 401 322 q 382 212 401 246 q 333 151 363 178 q 270 103 304 125 q 207 56 236 82 q 139 -87 139 -4 q 161 -158 139 -136 q 275 -204 204 -204 q 368 -193 319 -204 l 407 -58 l 476 -58 l 450 -262 q 260 -289 371 -289 q 92 -233 149 -289 q 36 -93 36 -178 q 167 129 36 35 q 237 180 204 157 q 284 220 269 203 q 306 256 299 238 q 319 318 319 285 m 349 671 q 364 671 349 671 q 400 650 379 671 q 421 599 421 629 q 400 547 421 568 q 349 526 379 526 q 298 547 319 526 q 276 599 276 568 q 298 650 276 629 q 349 671 319 671 z "},"À":{"ha":792,"x_min":-3,"x_max":786,"o":"m 517 996 l 233 1136 l 285 1236 l 326 1246 l 560 1061 l 517 996 m 506 0 l 506 61 l 618 90 l 544 335 l 235 335 l 163 86 l 285 63 l 285 0 l 15 0 l -3 65 l 72 90 l 338 960 l 454 960 l 721 90 l 786 65 l 771 0 l 506 0 m 388 856 l 261 422 l 518 422 l 388 856 z "},"Á":{"ha":792,"x_min":-3,"x_max":786,"o":"m 244 1061 l 464 1246 l 506 1236 l 557 1136 l 289 996 l 244 1061 m 506 0 l 506 61 l 618 90 l 544 335 l 235 335 l 163 86 l 285 63 l 285 0 l 15 0 l -3 65 l 72 90 l 338 960 l 454 960 l 721 90 l 786 65 l 771 0 l 506 0 m 388 856 l 261 422 l 518 422 l 388 856 z "},"Â":{"ha":792,"x_min":-3,"x_max":786,"o":"m 379 1228 l 401 1228 l 596 1010 l 494 1010 l 389 1097 l 285 1010 l 182 1010 l 379 1228 m 506 0 l 506 61 l 618 90 l 544 335 l 235 335 l 163 86 l 285 63 l 285 0 l 15 0 l -3 65 l 72 90 l 338 960 l 454 960 l 721 90 l 786 65 l 771 0 l 506 0 m 388 856 l 261 422 l 518 422 l 388 856 z "},"Ã":{"ha":792,"x_min":-3,"x_max":786,"o":"m 647 1069 q 531 1010 579 1010 q 476 1021 499 1010 q 433 1045 454 1032 q 390 1069 413 1058 q 331 1081 368 1081 q 271 1059 293 1081 q 233 1013 249 1038 l 182 1056 l 182 1078 q 272 1158 210 1133 q 346 1169 300 1169 q 428 1146 392 1169 q 510 1092 465 1122 l 596 1161 l 647 1069 m 506 0 l 506 61 l 618 90 l 544 335 l 235 335 l 163 86 l 285 63 l 285 0 l 15 0 l -3 65 l 72 90 l 338 960 l 454 960 l 721 90 l 786 65 l 771 0 l 506 0 m 388 856 l 261 422 l 518 422 l 388 856 z "},"Ä":{"ha":792,"x_min":-3,"x_max":786,"o":"m 506 0 l 506 61 l 618 90 l 544 335 l 235 335 l 163 86 l 285 63 l 285 0 l 15 0 l -3 65 l 72 90 l 338 960 l 454 960 l 721 90 l 786 65 l 771 0 l 506 0 m 388 856 l 261 422 l 518 422 l 388 856 m 176 1072 q 199 1128 176 1106 q 255 1151 222 1151 q 312 1128 288 1151 q 336 1072 336 1106 q 312 1015 336 1039 q 255 992 288 992 q 199 1015 222 992 q 176 1072 176 1039 m 421 1072 q 445 1128 421 1106 q 503 1151 469 1151 q 558 1128 536 1151 q 581 1072 581 1106 q 558 1015 581 1039 q 503 992 536 992 q 445 1015 469 992 q 421 1072 421 1039 z "},"Å":{"ha":788,"x_min":-4,"x_max":785,"o":"m 528 1043 q 463 928 528 968 l 719 90 l 785 65 l 769 0 l 504 0 l 504 61 l 617 90 l 543 335 l 233 335 l 161 86 l 283 63 l 283 0 l 14 0 l -4 65 l 71 90 l 326 931 q 282 977 299 947 q 265 1038 265 1007 q 276 1094 265 1069 q 303 1136 286 1118 q 397 1174 342 1174 q 490 1135 451 1174 q 528 1043 528 1097 m 386 856 l 260 422 l 517 422 l 386 856 m 344 1043 q 359 1005 344 1019 q 397 990 374 990 q 435 1005 421 990 q 449 1043 449 1019 q 435 1081 449 1067 q 397 1096 421 1096 q 359 1081 374 1096 q 344 1043 344 1067 z "},"Æ":{"ha":1000,"x_min":-17,"x_max":944,"o":"m 1 0 l -17 65 l 57 90 l 386 960 l 903 960 l 931 722 l 864 722 l 817 865 l 554 865 l 554 506 l 751 506 l 751 418 l 554 418 l 554 94 l 831 94 l 879 238 l 944 238 l 918 0 l 404 0 l 393 78 l 460 94 l 460 414 l 272 414 l 149 86 l 268 63 l 268 0 l 1 0 m 460 871 l 444 872 l 304 501 l 460 501 l 460 871 z "},"Ç":{"ha":776,"x_min":58,"x_max":732,"o":"m 521 -6 l 504 -4 l 488 -57 q 604 -133 574 -68 q 615 -189 615 -157 q 574 -289 615 -250 q 446 -328 532 -328 q 324 -300 389 -328 l 307 -294 l 358 -196 l 449 -251 q 503 -235 482 -251 q 525 -193 525 -218 q 501 -147 525 -168 q 418 -125 478 -125 l 407 -125 l 386 -103 l 425 3 q 158 164 258 33 q 58 481 58 293 q 92 665 58 578 q 188 818 126 753 q 524 960 319 960 q 686 942 599 960 l 711 722 l 632 722 l 599 858 q 574 863 588 860 q 526 865 561 865 q 256 749 361 865 q 157 483 157 640 q 253 206 157 314 q 519 89 356 89 q 697 138 621 89 l 732 53 q 638 11 696 28 q 521 -6 579 -6 z "},"È":{"ha":726,"x_min":76,"x_max":671,"o":"m 456 996 l 172 1136 l 224 1236 l 265 1246 l 499 1061 l 456 996 m 76 878 l 76 960 l 629 960 l 657 722 l 590 722 l 543 865 l 251 865 l 251 524 l 476 524 l 476 436 l 251 436 l 251 94 l 557 94 l 606 238 l 671 238 l 644 0 l 86 0 l 76 78 l 156 94 l 156 871 l 76 878 z "},"É":{"ha":726,"x_min":76,"x_max":671,"o":"m 240 1061 l 460 1246 l 501 1236 l 553 1136 l 285 996 l 240 1061 m 76 878 l 76 960 l 629 960 l 657 722 l 590 722 l 543 865 l 251 865 l 251 524 l 476 524 l 476 436 l 251 436 l 251 94 l 557 94 l 606 238 l 671 238 l 644 0 l 86 0 l 76 78 l 156 94 l 156 871 l 76 878 z "},"Ê":{"ha":726,"x_min":76,"x_max":671,"o":"m 349 1228 l 371 1228 l 567 1010 l 464 1010 l 358 1097 l 254 1010 l 151 1010 l 349 1228 m 76 878 l 76 960 l 629 960 l 657 722 l 590 722 l 543 865 l 251 865 l 251 524 l 476 524 l 476 436 l 251 436 l 251 94 l 557 94 l 606 238 l 671 238 l 644 0 l 86 0 l 76 78 l 156 94 l 156 871 l 76 878 z "},"Ë":{"ha":726,"x_min":76,"x_max":671,"o":"m 76 878 l 76 960 l 629 960 l 657 722 l 590 722 l 543 865 l 251 865 l 251 524 l 476 524 l 476 436 l 251 436 l 251 94 l 557 94 l 606 238 l 671 238 l 644 0 l 86 0 l 76 78 l 156 94 l 156 871 l 76 878 m 165 1101 q 188 1158 165 1135 q 244 1181 211 1181 q 301 1158 276 1181 q 325 1101 325 1135 q 301 1044 325 1068 q 244 1021 276 1021 q 188 1044 211 1021 q 165 1101 165 1068 m 410 1101 q 434 1158 410 1135 q 492 1181 458 1181 q 547 1158 525 1181 q 569 1101 569 1135 q 547 1044 569 1068 q 492 1021 525 1021 q 434 1044 458 1021 q 410 1101 410 1068 z "},"Ì":{"ha":407,"x_min":56,"x_max":382,"o":"m 338 996 l 56 1136 l 106 1236 l 149 1246 l 382 1061 l 338 996 m 156 89 l 156 871 l 76 876 l 76 960 l 321 960 l 326 882 l 251 871 l 251 89 l 331 83 l 331 0 l 86 0 l 81 78 l 156 89 z "},"Í":{"ha":407,"x_min":51,"x_max":363,"o":"m 51 1061 l 269 1246 l 313 1236 l 363 1136 l 94 996 l 51 1061 m 156 89 l 156 871 l 76 876 l 76 960 l 321 960 l 326 882 l 251 871 l 251 89 l 331 83 l 331 0 l 86 0 l 81 78 l 156 89 z "},"Î":{"ha":407,"x_min":-1,"x_max":413,"o":"m 196 1228 l 218 1228 l 413 1010 l 311 1010 l 206 1097 l 101 1010 l -1 1010 l 196 1228 m 156 89 l 156 871 l 76 876 l 76 960 l 321 960 l 326 882 l 251 871 l 251 89 l 331 83 l 331 0 l 86 0 l 81 78 l 156 89 z "},"Ï":{"ha":407,"x_min":28,"x_max":388,"o":"m 106 1021 q 50 1044 72 1021 q 28 1101 28 1068 q 50 1157 28 1133 q 106 1181 72 1181 q 163 1157 139 1181 q 186 1101 186 1133 q 163 1044 186 1068 q 106 1021 139 1021 m 310 1021 q 253 1044 276 1021 q 229 1101 229 1068 q 253 1157 229 1133 q 310 1181 276 1181 q 365 1157 343 1181 q 388 1101 388 1133 q 365 1044 388 1068 q 310 1021 343 1021 m 156 89 l 156 871 l 76 876 l 76 960 l 321 960 l 326 882 l 251 871 l 251 89 l 331 83 l 331 0 l 86 0 l 81 78 l 156 89 z "},"Ð":{"ha":842,"x_min":32,"x_max":781,"o":"m 78 78 l 157 96 l 157 436 l 32 436 l 32 513 l 42 524 l 157 524 l 157 871 l 78 878 l 78 960 l 276 960 q 636 844 503 960 q 781 485 781 717 q 649 119 781 243 q 294 0 524 0 l 88 0 l 78 78 m 682 490 q 656 638 682 568 q 579 758 629 708 q 290 865 475 865 l 253 865 l 253 524 l 486 524 q 496 514 496 524 l 496 436 l 253 436 l 253 94 l 314 94 q 607 217 514 94 q 682 490 682 317 z "},"Ñ":{"ha":915,"x_min":75,"x_max":854,"o":"m 700 1069 q 583 1010 632 1010 q 529 1021 551 1010 q 486 1045 507 1032 q 443 1069 465 1058 q 383 1081 421 1081 q 324 1059 346 1081 q 286 1013 301 1038 l 235 1056 l 235 1078 q 325 1158 263 1133 q 399 1169 353 1169 q 481 1146 444 1169 q 563 1092 518 1122 l 649 1161 l 700 1069 m 242 874 l 242 92 l 335 78 l 335 0 l 86 0 l 75 78 l 156 94 l 156 871 l 75 878 l 75 960 l 307 960 l 682 104 l 682 868 l 593 882 l 593 960 l 840 960 l 854 882 l 769 865 l 769 0 l 624 0 l 242 874 z "},"Ò":{"ha":896,"x_min":69,"x_max":826,"o":"m 576 996 l 294 1136 l 344 1236 l 388 1246 l 621 1061 l 576 996 m 449 -6 q 161 147 264 -6 q 69 476 69 282 q 161 806 69 671 q 278 917 207 874 q 449 960 350 960 q 619 917 547 960 q 736 806 690 874 q 826 476 826 669 q 736 147 826 283 q 619 37 690 79 q 449 -6 547 -6 m 168 474 q 232 211 168 315 q 449 89 306 89 q 664 211 590 89 q 728 474 728 315 q 664 740 728 633 q 449 865 589 865 q 232 740 307 865 q 168 474 168 633 z "},"Ó":{"ha":896,"x_min":69,"x_max":826,"o":"m 289 1061 l 508 1246 l 550 1236 l 601 1136 l 333 996 l 289 1061 m 449 -6 q 161 147 264 -6 q 69 476 69 282 q 161 806 69 671 q 278 917 207 874 q 449 960 350 960 q 619 917 547 960 q 736 806 690 874 q 826 476 826 669 q 736 147 826 283 q 619 37 690 79 q 449 -6 547 -6 m 168 474 q 232 211 168 315 q 449 89 306 89 q 664 211 590 89 q 728 474 728 315 q 664 740 728 633 q 449 865 589 865 q 232 740 307 865 q 168 474 168 633 z "},"Ô":{"ha":896,"x_min":69,"x_max":826,"o":"m 426 1228 l 449 1228 l 644 1010 l 542 1010 l 436 1097 l 332 1010 l 229 1010 l 426 1228 m 449 -6 q 161 147 264 -6 q 69 476 69 282 q 161 806 69 671 q 278 917 207 874 q 449 960 350 960 q 619 917 547 960 q 736 806 690 874 q 826 476 826 669 q 736 147 826 283 q 619 37 690 79 q 449 -6 547 -6 m 168 474 q 232 211 168 315 q 449 89 306 89 q 664 211 590 89 q 728 474 728 315 q 664 740 728 633 q 449 865 589 865 q 232 740 307 865 q 168 474 168 633 z "},"Õ":{"ha":896,"x_min":69,"x_max":826,"o":"m 693 1069 q 576 1010 625 1010 q 522 1021 544 1010 q 479 1045 500 1032 q 436 1069 458 1058 q 376 1081 414 1081 q 317 1059 339 1081 q 279 1013 294 1038 l 228 1056 l 228 1078 q 318 1158 256 1133 q 392 1169 346 1169 q 474 1146 438 1169 q 556 1092 511 1122 l 642 1161 l 693 1069 m 449 -6 q 161 147 264 -6 q 69 476 69 282 q 161 806 69 671 q 278 917 207 874 q 449 960 350 960 q 619 917 547 960 q 736 806 690 874 q 826 476 826 669 q 736 147 826 283 q 619 37 690 79 q 449 -6 547 -6 m 168 474 q 232 211 168 315 q 449 89 306 89 q 664 211 590 89 q 728 474 728 315 q 664 740 728 633 q 449 865 589 865 q 232 740 307 865 q 168 474 168 633 z "},"Ö":{"ha":896,"x_min":69,"x_max":826,"o":"m 449 -6 q 161 147 264 -6 q 69 476 69 282 q 161 806 69 671 q 278 917 207 874 q 449 960 350 960 q 619 917 547 960 q 736 806 690 874 q 826 476 826 669 q 736 147 826 283 q 619 37 690 79 q 449 -6 547 -6 m 168 474 q 232 211 168 315 q 449 89 306 89 q 664 211 590 89 q 728 474 728 315 q 664 740 728 633 q 449 865 589 865 q 232 740 307 865 q 168 474 168 633 m 260 1101 q 283 1158 260 1135 q 338 1181 306 1181 q 395 1158 371 1181 q 419 1101 419 1135 q 395 1044 419 1068 q 338 1021 371 1021 q 283 1044 306 1021 q 260 1101 260 1068 m 504 1101 q 528 1158 504 1135 q 586 1181 553 1181 q 642 1158 619 1181 q 664 1101 664 1135 q 642 1044 664 1068 q 586 1021 619 1021 q 528 1044 553 1021 q 504 1101 504 1068 z "},"×":{"ha":713,"x_min":75,"x_max":638,"o":"m 75 258 l 294 472 l 82 692 l 143 753 l 357 532 l 576 746 l 638 683 l 418 469 l 631 251 l 569 189 l 356 410 l 136 197 l 75 258 z "},"Ø":{"ha":896,"x_min":69,"x_max":826,"o":"m 160 805 q 184 839 160 805 q 278 917 207 874 q 441 960 350 960 q 601 925 532 960 l 656 1035 l 749 1035 l 747 1015 l 678 874 q 790 696 754 803 q 826 489 826 589 q 804 303 826 389 q 736 148 782 217 q 619 37 690 79 q 447 -6 547 -6 q 268 42 346 -6 l 219 -58 l 131 -58 l 126 -40 l 196 101 q 100 273 131 172 q 69 469 69 374 q 92 650 69 564 q 160 805 114 736 m 311 128 q 446 89 367 89 q 578 122 525 89 q 664 211 631 156 q 728 474 728 315 q 633 783 728 674 l 311 128 m 560 840 q 440 865 507 865 q 319 831 372 865 q 232 740 265 796 q 168 474 168 633 q 242 194 168 303 l 560 840 z "},"Ù":{"ha":872,"x_min":53,"x_max":821,"o":"m 544 996 l 263 1136 l 313 1236 l 356 1246 l 589 1061 l 544 996 m 579 876 l 579 960 l 815 960 l 821 882 l 744 871 l 744 281 q 654 69 744 147 q 435 -6 568 -6 q 218 72 301 -6 q 133 281 133 151 l 133 871 l 53 876 l 53 960 l 299 960 l 304 882 l 228 871 l 228 296 q 285 142 228 196 q 443 88 342 88 q 642 200 592 88 q 658 296 658 239 l 658 871 l 579 876 z "},"Ú":{"ha":872,"x_min":53,"x_max":821,"o":"m 304 1061 l 524 1246 l 565 1236 l 617 1136 l 349 996 l 304 1061 m 579 876 l 579 960 l 815 960 l 821 882 l 744 871 l 744 281 q 654 69 744 147 q 435 -6 568 -6 q 218 72 301 -6 q 133 281 133 151 l 133 871 l 53 876 l 53 960 l 299 960 l 304 882 l 228 871 l 228 296 q 285 142 228 196 q 443 88 342 88 q 642 200 592 88 q 658 296 658 239 l 658 871 l 579 876 z "},"Û":{"ha":872,"x_min":53,"x_max":821,"o":"m 421 1228 l 443 1228 l 639 1010 l 536 1010 l 431 1097 l 326 1010 l 224 1010 l 421 1228 m 579 876 l 579 960 l 815 960 l 821 882 l 744 871 l 744 281 q 654 69 744 147 q 435 -6 568 -6 q 218 72 301 -6 q 133 281 133 151 l 133 871 l 53 876 l 53 960 l 299 960 l 304 882 l 228 871 l 228 296 q 285 142 228 196 q 443 88 342 88 q 642 200 592 88 q 658 296 658 239 l 658 871 l 579 876 z "},"Ü":{"ha":872,"x_min":53,"x_max":821,"o":"m 579 876 l 579 960 l 815 960 l 821 882 l 744 871 l 744 281 q 654 69 744 147 q 435 -6 568 -6 q 218 72 301 -6 q 133 281 133 151 l 133 871 l 53 876 l 53 960 l 299 960 l 304 882 l 228 871 l 228 296 q 285 142 228 196 q 443 88 342 88 q 642 200 592 88 q 658 296 658 239 l 658 871 l 579 876 m 228 1101 q 251 1158 228 1135 q 306 1181 274 1181 q 363 1158 339 1181 q 388 1101 388 1135 q 363 1044 388 1068 q 306 1021 339 1021 q 251 1044 274 1021 q 228 1101 228 1068 m 472 1101 q 497 1158 472 1135 q 554 1181 521 1181 q 610 1158 588 1181 q 632 1101 632 1135 q 610 1044 632 1068 q 554 1021 588 1021 q 497 1044 521 1021 q 472 1101 472 1068 z "},"Ý":{"ha":749,"x_min":10,"x_max":735,"o":"m 233 1061 l 453 1246 l 494 1236 l 546 1136 l 278 996 l 233 1061 m 263 960 l 263 886 l 175 872 l 386 458 l 581 874 l 496 885 l 496 960 l 735 960 l 735 876 l 675 863 l 424 338 l 424 97 l 583 72 l 571 0 l 182 0 l 168 72 l 329 97 l 329 357 l 69 864 l 10 876 l 10 960 l 263 960 z "},"Þ":{"ha":694,"x_min":76,"x_max":660,"o":"m 156 89 l 156 871 l 76 876 l 76 960 l 322 960 l 328 882 l 251 871 l 251 779 l 311 779 q 631 642 554 779 q 660 515 660 590 q 553 303 660 375 q 307 243 463 243 l 251 243 l 251 89 l 404 71 l 404 0 l 88 0 l 81 78 l 156 89 m 301 339 q 539 428 485 339 q 558 513 558 461 q 539 599 558 565 q 485 650 519 632 q 303 683 424 683 l 251 683 l 251 339 l 301 339 z "},"ß":{"ha":710,"x_min":49,"x_max":671,"o":"m 322 931 q 208 776 208 931 l 208 0 l 49 0 l 49 61 l 121 76 l 121 775 q 178 953 121 890 q 322 1010 232 1010 q 470 958 413 1010 q 528 813 528 907 q 458 650 528 731 q 412 599 433 621 q 390 565 390 578 q 393 541 390 551 q 404 521 396 531 q 474 476 421 500 q 566 428 528 453 q 628 375 604 404 q 671 231 671 322 q 585 56 671 124 q 419 -6 508 -6 q 264 28 356 -6 l 297 121 l 419 74 q 538 119 496 74 q 579 229 579 165 q 544 331 579 293 q 442 403 508 369 q 342 470 375 438 q 310 547 310 503 q 329 620 310 592 q 373 676 349 649 q 417 735 397 703 q 436 801 436 767 q 428 857 436 836 q 406 894 421 878 q 322 931 375 931 z "},"à":{"ha":622,"x_min":57,"x_max":585,"o":"m 428 56 q 264 -6 361 -6 q 119 43 178 -6 q 57 172 57 94 q 95 292 57 249 q 189 358 133 335 q 421 400 278 396 l 421 489 q 388 560 421 533 q 299 586 354 586 q 203 568 232 586 l 181 494 l 67 515 q 156 628 90 588 q 290 665 214 665 q 457 612 406 665 q 508 468 508 558 l 508 110 q 540 69 508 69 q 569 76 553 69 l 585 24 q 508 -6 556 -6 q 428 56 444 -6 m 178 256 q 149 181 149 228 q 182 103 149 133 q 267 74 215 74 q 421 150 371 74 l 421 322 q 178 256 247 322 m 375 769 l 181 936 l 242 1010 l 278 1010 l 422 815 l 375 769 z "},"á":{"ha":622,"x_min":57,"x_max":585,"o":"m 428 56 q 264 -6 361 -6 q 119 43 178 -6 q 57 172 57 94 q 95 292 57 249 q 189 358 133 335 q 421 400 278 396 l 421 489 q 388 560 421 533 q 299 586 354 586 q 203 568 232 586 l 181 494 l 67 515 q 156 628 90 588 q 290 665 214 665 q 457 612 406 665 q 508 468 508 558 l 508 110 q 540 69 508 69 q 569 76 553 69 l 585 24 q 508 -6 556 -6 q 428 56 444 -6 m 178 256 q 149 181 149 228 q 182 103 149 133 q 267 74 215 74 q 421 150 371 74 l 421 322 q 178 256 247 322 m 207 814 l 351 1007 l 389 1007 l 450 935 l 256 768 l 207 814 z "},"â":{"ha":622,"x_min":57,"x_max":585,"o":"m 121 761 l 282 960 l 304 960 l 465 764 l 461 756 l 385 756 l 293 836 l 201 756 l 126 756 l 121 761 m 428 56 q 264 -6 361 -6 q 119 43 178 -6 q 57 172 57 94 q 95 292 57 249 q 189 358 133 335 q 421 400 278 396 l 421 489 q 388 560 421 533 q 299 586 354 586 q 203 568 232 586 l 181 494 l 67 515 q 156 628 90 588 q 290 665 214 665 q 457 612 406 665 q 508 468 508 558 l 508 110 q 540 69 508 69 q 569 76 553 69 l 585 24 q 508 -6 556 -6 q 428 56 444 -6 m 178 256 q 149 181 149 228 q 182 103 149 133 q 267 74 215 74 q 421 150 371 74 l 421 322 q 178 256 247 322 z "},"ã":{"ha":622,"x_min":57,"x_max":585,"o":"m 240 833 q 160 769 183 828 l 100 806 l 101 829 q 151 892 121 863 q 231 921 181 921 q 294 905 261 921 q 347 879 328 889 q 382 864 365 869 l 456 921 l 507 835 q 454 797 479 811 q 398 782 429 782 q 347 790 367 782 q 310 808 328 799 q 276 825 293 817 q 240 833 260 833 m 428 56 q 264 -6 361 -6 q 119 43 178 -6 q 57 172 57 94 q 95 292 57 249 q 189 358 133 335 q 421 400 278 396 l 421 489 q 388 560 421 533 q 299 586 354 586 q 203 568 232 586 l 181 494 l 67 515 q 156 628 90 588 q 290 665 214 665 q 457 612 406 665 q 508 468 508 558 l 508 110 q 540 69 508 69 q 569 76 553 69 l 585 24 q 508 -6 556 -6 q 428 56 444 -6 m 178 256 q 149 181 149 228 q 182 103 149 133 q 267 74 215 74 q 421 150 371 74 l 421 322 q 178 256 247 322 z "},"ä":{"ha":622,"x_min":57,"x_max":585,"o":"m 190 792 q 176 792 190 792 q 143 813 163 792 q 124 860 124 833 q 143 908 124 888 q 190 928 163 928 q 238 908 218 928 q 258 860 258 888 q 238 813 258 833 q 190 792 218 792 m 383 792 q 369 792 383 792 q 337 813 356 792 q 318 860 318 833 q 337 908 318 888 q 383 928 356 928 q 431 908 411 928 q 450 860 450 888 q 431 813 450 833 q 383 792 411 792 m 428 56 q 264 -6 361 -6 q 119 43 178 -6 q 57 172 57 94 q 95 292 57 249 q 189 358 133 335 q 421 400 278 396 l 421 489 q 388 560 421 533 q 299 586 354 586 q 203 568 232 586 l 181 494 l 67 515 q 156 628 90 588 q 290 665 214 665 q 457 612 406 665 q 508 468 508 558 l 508 110 q 540 69 508 69 q 569 76 553 69 l 585 24 q 508 -6 556 -6 q 428 56 444 -6 m 178 256 q 149 181 149 228 q 182 103 149 133 q 267 74 215 74 q 421 150 371 74 l 421 322 q 178 256 247 322 z "},"å":{"ha":622,"x_min":57,"x_max":585,"o":"m 297 708 q 208 744 244 708 q 172 834 172 781 q 208 924 172 888 q 297 960 244 960 q 386 924 350 960 q 422 834 422 888 q 386 744 422 781 q 297 708 350 708 m 297 886 q 259 872 274 886 q 244 834 244 858 q 259 796 244 810 q 297 782 274 782 q 335 796 321 782 q 350 834 350 810 q 335 872 350 858 q 297 886 321 886 m 428 56 q 264 -6 361 -6 q 119 43 178 -6 q 57 172 57 94 q 95 292 57 249 q 189 358 133 335 q 421 400 278 396 l 421 489 q 388 560 421 533 q 299 586 354 586 q 203 568 232 586 l 181 494 l 67 515 q 156 628 90 588 q 290 665 214 665 q 457 612 406 665 q 508 468 508 558 l 508 110 q 540 69 508 69 q 569 76 553 69 l 585 24 q 508 -6 556 -6 q 428 56 444 -6 m 178 256 q 149 181 149 228 q 182 103 149 133 q 267 74 215 74 q 421 150 371 74 l 421 322 q 178 256 247 322 z "},"æ":{"ha":969,"x_min":57,"x_max":922,"o":"m 857 126 l 882 50 q 810 11 850 25 q 704 -3 769 -3 q 481 110 558 -3 q 474 98 478 103 q 467 88 469 93 q 404 31 432 47 q 282 -6 344 -6 q 179 10 219 -6 q 111 50 139 25 q 57 169 57 100 q 86 277 57 238 q 163 338 115 317 q 388 371 238 371 l 421 371 l 421 489 q 397 542 421 518 q 286 586 350 586 q 203 568 224 586 l 181 494 l 67 515 q 147 628 76 585 q 281 665 211 665 q 490 554 442 665 q 588 638 531 608 q 710 668 646 668 q 864 622 806 668 q 922 498 922 576 q 888 379 922 419 q 801 319 854 339 q 564 290 722 290 l 513 290 q 592 119 519 178 q 725 78 644 78 q 857 126 806 78 m 515 371 l 593 369 q 831 481 831 369 q 792 560 831 533 q 713 588 754 588 q 641 574 672 588 q 583 535 610 561 q 515 371 526 478 m 228 279 q 209 272 228 279 q 169 244 189 265 q 149 178 149 222 q 185 105 149 135 q 275 75 221 75 q 367 99 329 75 q 421 149 406 124 l 421 293 l 375 293 q 228 279 268 293 z "},"ç":{"ha":564,"x_min":60,"x_max":532,"o":"m 258 94 q 367 74 297 74 q 500 111 436 74 l 524 43 q 383 -4 469 1 l 369 -44 q 433 -68 411 -47 q 476 -155 476 -104 q 441 -239 476 -206 q 335 -272 406 -272 q 270 -263 297 -272 q 218 -244 243 -254 l 261 -161 l 338 -208 q 383 -194 365 -208 q 401 -159 401 -181 q 381 -119 401 -137 q 311 -101 361 -101 l 303 -101 l 285 -83 l 313 -4 q 119 104 189 6 q 60 324 60 190 q 215 636 60 556 q 339 665 269 665 q 532 614 463 665 l 471 518 l 389 583 q 363 586 378 586 l 339 586 q 189 501 236 586 q 151 322 151 433 q 258 94 151 153 z "},"è":{"ha":615,"x_min":58,"x_max":557,"o":"m 553 47 q 360 -6 481 -6 q 133 90 214 -6 q 58 322 58 179 q 135 564 58 469 q 350 665 215 665 q 496 617 438 665 q 557 488 557 567 q 519 364 557 408 q 421 296 481 319 q 154 257 322 257 q 219 124 168 176 q 365 72 269 72 q 529 122 461 72 l 553 47 m 174 339 q 350 356 297 339 q 434 402 403 374 q 465 483 465 431 q 428 563 465 535 q 348 586 396 586 q 264 566 300 586 q 203 511 228 546 q 150 339 153 440 l 174 339 m 374 768 l 179 935 l 240 1008 l 276 1008 l 421 814 l 374 768 z "},"é":{"ha":615,"x_min":58,"x_max":557,"o":"m 553 47 q 360 -6 481 -6 q 133 90 214 -6 q 58 322 58 179 q 135 564 58 469 q 350 665 215 665 q 496 617 438 665 q 557 488 557 567 q 519 364 557 408 q 421 296 481 319 q 154 257 322 257 q 219 124 168 176 q 365 72 269 72 q 529 122 461 72 l 553 47 m 174 339 q 350 356 297 339 q 434 402 403 374 q 465 483 465 431 q 428 563 465 535 q 348 586 396 586 q 264 566 300 586 q 203 511 228 546 q 150 339 153 440 l 174 339 m 246 814 l 390 1007 l 428 1007 l 489 935 l 294 768 l 246 814 z "},"ê":{"ha":615,"x_min":58,"x_max":557,"o":"m 167 761 l 328 960 l 350 960 l 511 764 l 507 756 l 431 756 l 339 836 l 247 756 l 172 756 l 167 761 m 553 47 q 360 -6 481 -6 q 133 90 214 -6 q 58 322 58 179 q 135 564 58 469 q 350 665 215 665 q 496 617 438 665 q 557 488 557 567 q 519 364 557 408 q 421 296 481 319 q 154 257 322 257 q 219 124 168 176 q 365 72 269 72 q 529 122 461 72 l 553 47 m 174 339 q 350 356 297 339 q 434 402 403 374 q 465 483 465 431 q 428 563 465 535 q 348 586 396 586 q 264 566 300 586 q 203 511 228 546 q 150 339 153 440 l 174 339 z "},"ë":{"ha":615,"x_min":58,"x_max":557,"o":"m 236 792 q 222 792 236 792 q 189 813 208 792 q 169 860 169 833 q 189 908 169 888 q 236 928 208 928 q 284 908 264 928 q 304 860 304 888 q 284 813 304 833 q 236 792 264 792 m 429 792 q 415 792 429 792 q 383 813 401 792 q 364 860 364 833 q 383 908 364 888 q 429 928 401 928 q 476 908 457 928 q 496 860 496 888 q 476 813 496 833 q 429 792 457 792 m 553 47 q 360 -6 481 -6 q 133 90 214 -6 q 58 322 58 179 q 135 564 58 469 q 350 665 215 665 q 496 617 438 665 q 557 488 557 567 q 519 364 557 408 q 421 296 481 319 q 154 257 322 257 q 219 124 168 176 q 365 72 269 72 q 529 122 461 72 l 553 47 m 174 339 q 350 356 297 339 q 434 402 403 374 q 465 483 465 431 q 428 563 465 535 q 348 586 396 586 q 264 566 300 586 q 203 511 228 546 q 150 339 153 440 l 174 339 z "},"ì":{"ha":346,"x_min":47,"x_max":307,"o":"m 222 626 l 222 82 l 307 61 l 307 0 l 64 0 l 51 60 l 135 81 l 135 578 l 60 572 l 47 643 l 185 668 l 222 626 m 242 769 l 47 936 l 108 1010 l 144 1010 l 289 815 l 242 769 z "},"í":{"ha":346,"x_min":47,"x_max":307,"o":"m 222 626 l 222 82 l 307 61 l 307 0 l 64 0 l 51 60 l 135 81 l 135 578 l 60 572 l 47 643 l 185 668 l 222 626 m 54 813 l 199 1006 l 236 1006 l 297 933 l 103 767 l 54 813 z "},"î":{"ha":346,"x_min":-15,"x_max":329,"o":"m -15 761 l 146 960 l 168 960 l 329 764 l 324 756 l 249 756 l 157 836 l 64 756 l -10 756 l -15 761 m 222 626 l 222 82 l 307 61 l 307 0 l 64 0 l 51 60 l 135 81 l 135 578 l 60 572 l 47 643 l 185 668 l 222 626 z "},"ï":{"ha":346,"x_min":4,"x_max":315,"o":"m 71 792 q 57 792 71 792 q 24 813 43 792 q 4 860 4 833 q 24 908 4 888 q 71 928 43 928 q 118 908 99 928 q 138 860 138 888 q 118 813 138 833 q 71 792 99 792 m 249 792 q 235 792 249 792 q 202 813 221 792 q 183 860 183 833 q 202 908 183 888 q 249 928 221 928 q 296 908 276 928 q 315 860 315 888 q 296 813 315 833 q 249 792 276 792 m 222 626 l 222 82 l 307 61 l 307 0 l 64 0 l 51 60 l 135 81 l 135 578 l 60 572 l 47 643 l 185 668 l 222 626 z "},"ð":{"ha":710,"x_min":60,"x_max":671,"o":"m 514 797 q 638 414 638 626 q 496 35 638 138 q 359 -6 440 -6 q 224 20 278 -6 q 133 90 169 46 q 60 321 60 178 q 133 547 60 458 q 329 636 208 636 q 525 571 450 636 q 436 756 497 674 l 274 669 l 235 733 l 382 818 q 221 938 314 886 l 261 1011 q 460 864 371 958 l 625 961 l 671 879 l 514 797 m 329 557 q 257 539 290 557 q 200 489 224 521 q 154 319 154 424 q 217 128 154 194 q 337 74 267 74 q 444 103 407 74 q 503 178 482 132 q 542 382 539 254 q 468 514 533 464 q 329 557 411 557 z "},"ñ":{"ha":701,"x_min":44,"x_max":669,"o":"m 300 833 q 219 769 243 828 l 160 806 l 161 829 q 210 892 181 863 q 290 921 240 921 q 354 905 321 921 q 406 879 388 889 q 442 864 425 869 l 515 921 l 567 835 q 514 797 539 811 q 458 782 489 782 q 407 790 426 782 q 370 808 388 799 q 336 825 353 817 q 300 833 319 833 m 379 586 q 219 528 286 586 l 219 82 l 304 61 l 304 0 l 64 0 l 56 60 l 132 81 l 132 583 l 57 578 l 44 643 l 185 668 l 215 611 q 388 665 293 665 q 533 615 482 665 q 585 464 585 564 l 585 81 l 669 61 l 669 0 l 419 0 l 414 61 l 497 81 l 497 454 q 379 586 497 586 z "},"ò":{"ha":679,"x_min":58,"x_max":621,"o":"m 58 335 q 76 461 58 400 q 131 568 94 522 q 339 668 207 668 q 553 565 479 668 q 621 333 621 472 q 553 100 621 194 q 339 -6 479 -6 q 126 100 204 -6 q 58 335 58 193 m 191 492 q 180 472 191 492 q 160 403 169 451 q 150 314 150 356 q 160 229 150 272 q 194 153 171 186 q 339 75 246 75 q 488 156 438 75 q 529 326 529 224 q 428 564 529 494 q 338 588 392 588 q 249 560 285 588 q 191 492 213 532 m 440 768 l 246 935 l 307 1008 l 343 1008 l 488 814 l 440 768 z "},"ó":{"ha":679,"x_min":58,"x_max":621,"o":"m 58 335 q 76 461 58 400 q 131 568 94 522 q 339 668 207 668 q 553 565 479 668 q 621 333 621 472 q 553 100 621 194 q 339 -6 479 -6 q 126 100 204 -6 q 58 335 58 193 m 191 492 q 180 472 191 492 q 160 403 169 451 q 150 314 150 356 q 160 229 150 272 q 194 153 171 186 q 339 75 246 75 q 488 156 438 75 q 529 326 529 224 q 428 564 529 494 q 338 588 392 588 q 249 560 285 588 q 191 492 213 532 m 236 814 l 381 1007 l 418 1007 l 479 935 l 285 768 l 236 814 z "},"ô":{"ha":679,"x_min":58,"x_max":621,"o":"m 169 761 l 331 960 l 353 960 l 513 764 l 508 756 l 433 756 l 340 836 l 249 756 l 175 756 l 169 761 m 58 335 q 76 461 58 400 q 131 568 94 522 q 339 668 207 668 q 553 565 479 668 q 621 333 621 472 q 553 100 621 194 q 339 -6 479 -6 q 126 100 204 -6 q 58 335 58 193 m 191 492 q 180 472 191 492 q 160 403 169 451 q 150 314 150 356 q 160 229 150 272 q 194 153 171 186 q 339 75 246 75 q 488 156 438 75 q 529 326 529 224 q 428 564 529 494 q 338 588 392 588 q 249 560 285 588 q 191 492 213 532 z "},"õ":{"ha":679,"x_min":58,"x_max":621,"o":"m 271 833 q 190 769 214 828 l 131 806 l 132 829 q 181 892 151 863 q 261 921 211 921 q 325 905 292 921 q 377 879 358 889 q 413 864 396 869 l 486 921 l 538 835 q 485 797 510 811 q 428 782 460 782 q 378 790 397 782 q 341 808 358 799 q 307 825 324 817 q 271 833 290 833 m 58 335 q 76 461 58 400 q 131 568 94 522 q 339 668 207 668 q 553 565 479 668 q 621 333 621 472 q 553 100 621 194 q 339 -6 479 -6 q 126 100 204 -6 q 58 335 58 193 m 191 492 q 180 472 191 492 q 160 403 169 451 q 150 314 150 356 q 160 229 150 272 q 194 153 171 186 q 339 75 246 75 q 488 156 438 75 q 529 326 529 224 q 428 564 529 494 q 338 588 392 588 q 249 560 285 588 q 191 492 213 532 z "},"ö":{"ha":679,"x_min":58,"x_max":621,"o":"m 250 792 q 236 792 250 792 q 203 813 222 792 q 183 860 183 833 q 203 908 183 888 q 250 928 222 928 q 298 908 278 928 q 318 860 318 888 q 298 813 318 833 q 250 792 278 792 m 443 792 q 429 792 443 792 q 397 813 415 792 q 378 860 378 833 q 397 908 378 888 q 443 928 415 928 q 490 908 471 928 q 510 860 510 888 q 490 813 510 833 q 443 792 471 792 m 58 335 q 76 461 58 400 q 131 568 94 522 q 339 668 207 668 q 553 565 479 668 q 621 333 621 472 q 553 100 621 194 q 339 -6 479 -6 q 126 100 204 -6 q 58 335 58 193 m 191 492 q 180 472 191 492 q 160 403 169 451 q 150 314 150 356 q 160 229 150 272 q 194 153 171 186 q 339 75 246 75 q 488 156 438 75 q 529 326 529 224 q 428 564 529 494 q 338 588 392 588 q 249 560 285 588 q 191 492 213 532 z "},"÷":{"ha":575,"x_min":78,"x_max":497,"o":"m 78 500 l 497 500 l 497 413 l 78 413 l 78 500 m 291 181 q 276 181 291 181 q 240 201 261 181 q 218 252 218 222 q 240 303 218 282 q 291 325 261 325 q 342 303 321 325 q 363 252 363 282 q 342 201 363 222 q 291 181 321 181 m 291 583 q 276 583 291 583 q 240 604 261 583 q 218 655 218 625 q 240 706 218 685 q 291 728 261 728 q 342 706 321 728 q 363 655 363 685 q 342 604 363 625 q 291 583 321 583 z "},"ø":{"ha":679,"x_min":58,"x_max":625,"o":"m 130 568 q 148 591 130 568 q 217 641 165 614 q 334 668 269 668 q 458 643 399 668 l 554 836 l 625 836 l 624 815 l 518 604 q 596 485 571 557 q 621 340 621 413 q 604 208 621 268 q 553 100 588 147 q 339 -6 479 -6 q 225 17 278 -6 l 154 -125 l 88 -125 l 83 -107 l 165 57 q 84 179 110 106 q 58 326 58 253 q 76 461 58 400 q 130 568 94 522 m 419 567 q 334 588 383 588 q 249 560 285 588 q 192 492 213 532 q 150 317 150 415 q 206 138 150 207 l 419 567 m 263 92 q 344 75 296 75 q 428 97 392 75 q 488 156 465 119 q 529 326 529 224 q 475 518 529 439 l 263 92 z "},"ù":{"ha":681,"x_min":26,"x_max":633,"o":"m 483 51 q 321 -6 414 -6 q 131 111 179 -6 q 114 217 114 153 l 114 576 l 39 576 l 26 643 l 167 668 l 201 629 l 201 221 q 253 94 201 128 q 331 75 283 75 q 420 94 379 75 q 478 140 461 114 l 478 576 l 403 576 l 393 643 l 532 669 l 565 629 l 565 101 q 597 71 565 71 l 622 75 l 633 26 q 604 6 625 17 q 554 -6 583 -6 q 483 51 499 -6 m 369 768 l 175 935 l 236 1008 l 272 1008 l 417 814 l 369 768 z "},"ú":{"ha":681,"x_min":26,"x_max":633,"o":"m 483 51 q 321 -6 414 -6 q 131 111 179 -6 q 114 217 114 153 l 114 576 l 39 576 l 26 643 l 167 668 l 201 629 l 201 221 q 253 94 201 128 q 331 75 283 75 q 420 94 379 75 q 478 140 461 114 l 478 576 l 403 576 l 393 643 l 532 669 l 565 629 l 565 101 q 597 71 565 71 l 622 75 l 633 26 q 604 6 625 17 q 554 -6 583 -6 q 483 51 499 -6 m 236 814 l 381 1007 l 418 1007 l 479 935 l 285 768 l 236 814 z "},"û":{"ha":681,"x_min":26,"x_max":633,"o":"m 158 761 l 319 960 l 342 960 l 503 764 l 497 756 l 422 756 l 331 836 l 238 756 l 164 756 l 158 761 m 483 51 q 321 -6 414 -6 q 131 111 179 -6 q 114 217 114 153 l 114 576 l 39 576 l 26 643 l 167 668 l 201 629 l 201 221 q 253 94 201 128 q 331 75 283 75 q 420 94 379 75 q 478 140 461 114 l 478 576 l 403 576 l 393 643 l 532 669 l 565 629 l 565 101 q 597 71 565 71 l 622 75 l 633 26 q 604 6 625 17 q 554 -6 583 -6 q 483 51 499 -6 z "},"ü":{"ha":681,"x_min":26,"x_max":633,"o":"m 247 792 q 233 792 247 792 q 200 813 219 792 q 181 860 181 833 q 200 908 181 888 q 247 928 219 928 q 294 908 275 928 q 314 860 314 888 q 294 813 314 833 q 247 792 275 792 m 439 792 q 425 792 439 792 q 392 813 411 792 q 374 860 374 833 q 392 908 374 888 q 439 928 411 928 q 487 908 467 928 q 507 860 507 888 q 487 813 507 833 q 439 792 467 792 m 483 51 q 321 -6 414 -6 q 131 111 179 -6 q 114 217 114 153 l 114 576 l 39 576 l 26 643 l 167 668 l 201 629 l 201 221 q 253 94 201 128 q 331 75 283 75 q 420 94 379 75 q 478 140 461 114 l 478 576 l 403 576 l 393 643 l 532 669 l 565 629 l 565 101 q 597 71 565 71 l 622 75 l 633 26 q 604 6 625 17 q 554 -6 583 -6 q 483 51 499 -6 z "},"ý":{"ha":624,"x_min":4,"x_max":606,"o":"m 58 -257 q 139 -299 100 -299 q 225 -211 189 -299 q 240 -167 233 -187 l 276 -65 l 63 590 l 15 590 l 4 658 l 136 667 l 326 75 l 510 590 l 460 590 l 449 658 l 582 667 l 606 618 q 463 227 539 436 q 340 -103 386 18 q 281 -258 294 -225 q 247 -317 267 -290 q 138 -379 203 -379 q 15 -329 79 -379 l 58 -257 m 244 814 l 389 1007 l 426 1007 l 488 935 l 293 768 l 244 814 z "},"þ":{"ha":675,"x_min":8,"x_max":617,"o":"m 188 33 l 192 -68 l 192 -289 l 360 -318 l 360 -379 l 35 -379 l 22 -318 l 104 -299 l 104 931 l 19 925 l 8 996 l 154 1021 l 192 981 l 192 617 q 344 668 251 668 q 536 581 460 668 q 617 338 617 488 q 514 64 617 154 q 421 10 471 25 q 332 -6 371 -6 q 188 33 247 -6 m 192 121 q 242 90 207 106 q 316 75 276 75 q 391 85 356 75 q 456 125 426 96 q 524 329 524 190 q 460 535 524 468 q 336 588 410 588 q 249 568 289 588 q 192 515 210 549 l 192 121 z "},"ÿ":{"ha":624,"x_min":4,"x_max":606,"o":"m 219 792 q 206 792 219 792 q 172 813 192 792 q 153 860 153 833 q 172 908 153 888 q 219 928 192 928 q 267 908 247 928 q 286 860 286 888 q 267 813 286 833 q 219 792 247 792 m 411 792 q 397 792 411 792 q 365 813 383 792 q 346 860 346 833 q 365 908 346 888 q 411 928 383 928 q 459 908 439 928 q 479 860 479 888 q 459 813 479 833 q 411 792 439 792 m 58 -257 q 139 -299 100 -299 q 225 -211 189 -299 q 240 -167 233 -187 l 276 -65 l 63 590 l 15 590 l 4 658 l 136 667 l 326 75 l 510 590 l 460 590 l 449 658 l 582 667 l 606 618 q 463 227 539 436 q 340 -103 386 18 q 281 -258 294 -225 q 247 -317 267 -290 q 138 -379 203 -379 q 15 -329 79 -379 l 58 -257 z "},"Œ":{"ha":1192,"x_min":67,"x_max":1136,"o":"m 538 0 q 460 -6 499 -6 q 163 147 271 -6 q 67 476 67 283 q 91 649 67 561 q 163 806 115 736 q 283 921 211 876 q 449 965 354 965 l 465 965 q 551 960 513 965 l 1094 960 l 1122 722 l 1056 722 l 1008 865 l 717 865 l 717 524 l 956 524 l 956 436 l 717 436 l 717 94 l 1022 94 l 1071 238 l 1136 238 l 1110 0 l 538 0 m 236 211 q 328 122 272 156 q 473 89 383 89 q 621 142 563 89 l 621 821 q 553 858 589 849 q 456 867 517 867 q 340 832 396 867 q 244 742 283 797 q 165 474 165 624 q 236 211 165 318 z "},"œ":{"ha":1086,"x_min":58,"x_max":1028,"o":"m 575 133 q 339 -6 501 -6 q 126 100 204 -6 q 58 333 58 193 q 131 568 58 475 q 339 668 207 668 q 490 627 431 668 q 581 521 549 586 q 682 627 619 588 q 821 667 744 667 q 967 619 908 667 q 1028 489 1028 568 q 992 365 1028 410 q 897 297 956 321 q 625 258 803 258 q 690 126 639 178 q 836 74 740 74 q 1000 124 932 74 l 1024 49 q 831 -4 951 -4 q 575 133 654 -4 m 191 492 q 180 472 191 492 q 160 403 169 451 q 150 314 150 356 q 160 229 150 272 q 194 153 171 186 q 339 75 246 75 q 485 153 435 75 q 529 317 526 215 l 529 326 q 428 564 529 494 q 338 588 392 588 q 249 560 285 588 q 191 492 213 532 m 644 340 q 821 358 768 340 q 905 403 874 375 q 936 485 936 432 q 899 564 936 536 q 819 588 867 588 q 735 567 771 588 q 675 514 699 547 q 621 340 624 442 l 644 340 z "},"–":{"ha":688,"x_min":85,"x_max":600,"o":"m 85 504 l 600 504 l 600 418 l 85 418 l 85 504 z "},"—":{"ha":1007,"x_min":85,"x_max":919,"o":"m 85 504 l 919 504 l 919 418 l 85 418 l 85 504 z "},"‘":{"ha":260,"x_min":64,"x_max":201,"o":"m 79 624 q 64 738 64 678 q 142 972 64 857 l 201 938 l 201 924 l 156 803 l 188 642 l 79 624 z "},"’":{"ha":251,"x_min":57,"x_max":194,"o":"m 179 974 q 194 856 194 913 q 117 625 194 740 l 57 660 l 57 674 l 103 794 l 71 956 l 179 974 z "},"‚":{"ha":288,"x_min":63,"x_max":213,"o":"m 179 189 q 213 74 213 122 q 201 -8 213 26 q 175 -71 190 -42 q 113 -160 150 -117 l 63 -129 l 63 -110 l 117 13 l 63 150 l 179 189 z "},"“":{"ha":410,"x_min":67,"x_max":358,"o":"m 236 660 q 221 774 221 714 q 299 1008 221 893 l 358 974 l 358 960 l 313 839 l 344 678 l 236 660 m 204 960 l 158 839 l 190 660 l 82 638 q 78 656 81 642 q 74 688 76 669 q 67 783 67 733 q 144 1008 67 893 l 204 974 l 204 960 z "},"”":{"ha":406,"x_min":57,"x_max":349,"o":"m 179 974 q 194 856 194 913 q 117 625 194 740 l 57 660 l 57 674 l 103 794 l 71 956 l 179 974 m 211 674 l 257 794 l 225 974 l 333 996 q 349 867 349 935 q 271 625 349 740 l 211 660 l 211 674 z "},"„":{"ha":446,"x_min":57,"x_max":371,"o":"m 174 189 q 207 74 207 122 q 196 -8 207 26 q 169 -71 185 -42 q 107 -160 144 -117 l 57 -129 l 57 -110 l 111 13 l 57 150 l 174 189 m 221 -110 l 275 13 l 221 182 l 338 217 q 363 133 354 183 q 371 55 371 83 q 360 -8 371 26 q 333 -71 349 -42 q 271 -160 308 -117 l 221 -129 l 221 -110 z "},"•":{"ha":350,"x_min":68,"x_max":283,"o":"m 68 532 q 99 608 68 576 q 175 640 131 640 q 251 608 219 640 q 283 532 283 576 q 251 456 283 488 q 175 425 219 425 q 99 456 131 425 q 68 532 68 488 z "},"‹":{"ha":488,"x_min":19,"x_max":406,"o":"m 19 436 l 399 736 l 406 733 l 406 636 l 131 418 l 406 201 l 406 101 l 397 97 l 19 400 l 19 436 z "},"›":{"ha":488,"x_min":82,"x_max":468,"o":"m 468 400 l 90 97 l 82 101 l 82 201 l 357 418 l 82 636 l 82 733 l 89 736 l 468 436 l 468 400 z "},"€":{"ha":796,"x_min":47,"x_max":735,"o":"m 700 138 l 735 53 q 640 11 699 28 q 508 -6 582 -6 q 368 20 433 -6 q 258 92 303 46 q 151 343 172 179 l 47 343 l 47 431 l 144 431 l 144 486 q 146 515 144 500 l 47 515 l 47 603 l 154 603 q 369 933 194 860 q 499 960 431 960 q 700 942 613 960 l 731 722 l 651 722 l 613 858 q 581 863 601 860 q 509 865 561 865 q 411 845 457 865 q 333 790 365 825 q 253 603 275 726 l 635 603 l 635 515 l 244 515 q 243 492 243 504 l 243 431 l 633 431 l 633 343 l 251 343 q 328 161 269 224 q 510 89 396 89 q 700 138 624 89 z "}}}
